<?xml version="1.0" standalone="no"?>
<!DOCTYPE svg PUBLIC "-//W3C//DTD SVG 20010904//EN"
 "http://www.w3.org/TR/2001/REC-SVG-20010904/DTD/svg10.dtd">
<svg version="1.0" xmlns="http://www.w3.org/2000/svg"
 width="1600.000000pt" height="902.000000pt" viewBox="0 0 1600.000000 902.000000"
 preserveAspectRatio="xMidYMid meet">

<g transform="translate(0.000000,902.000000) scale(0.100000,-0.100000)"
fill="#000000" stroke="none">
<path d="M9745 7802 c-5 -4 -10 -33 -10 -65 0 -47 3 -57 17 -57 14 0 16 6 12
30 -5 24 -3 30 11 30 14 0 16 -6 13 -30 -4 -26 -1 -30 18 -30 14 0 22 5 20 13
-3 6 -7 24 -10 40 -5 20 -12 27 -31 27 -18 0 -24 6 -27 25 -2 14 -7 21 -13 17z"/>
<path d="M10079 7802 c-11 -2 -15 -10 -12 -22 4 -13 -1 -19 -19 -22 -18 -2
-24 -10 -26 -36 -4 -36 9 -45 55 -40 28 3 28 3 23 63 -4 49 -8 60 -21 57z m-9
-83 c0 -24 -23 -21 -28 4 -2 10 3 17 12 17 10 0 16 -9 16 -21z"/>
<path d="M9842 7743 c-15 -28 3 -63 33 -63 31 0 34 20 3 21 -22 1 -22 1 2 8
16 4 25 14 25 26 0 27 -50 33 -63 8z"/>
<path d="M9930 7751 c0 -5 12 -11 28 -13 l27 -4 -27 -12 c-44 -18 -36 -42 13
-42 33 0 40 3 35 16 -3 9 -6 27 -6 40 0 21 -5 24 -35 24 -19 0 -35 -4 -35 -9z
m47 -47 c-3 -3 -12 -4 -19 -1 -8 3 -5 6 6 6 11 1 17 -2 13 -5z"/>
<path d="M10155 7700 c0 -56 1 -60 24 -60 19 0 21 3 12 14 -10 12 -7 17 16 28
21 10 28 20 28 43 0 28 -3 30 -40 33 l-40 3 0 -61z m55 20 c0 -11 -7 -20 -15
-20 -8 0 -15 9 -15 20 0 11 7 20 15 20 8 0 15 -9 15 -20z"/>
<path d="M10254 7746 c-3 -8 -4 -25 -2 -38 2 -19 9 -23 38 -23 33 0 35 2 35
35 0 32 -3 35 -33 38 -21 2 -34 -2 -38 -12z m54 -30 c3 -13 -1 -17 -14 -14
-11 2 -20 11 -22 22 -3 13 1 17 14 14 11 -2 20 -11 22 -22z"/>
<path d="M10350 7740 c0 -10 8 -24 18 -29 16 -10 16 -10 0 -11 -10 0 -18 -4
-18 -10 0 -5 11 -10 25 -10 36 0 44 28 14 52 -24 19 -24 19 -1 13 13 -4 22 -2
22 4 0 6 -13 11 -30 11 -23 0 -30 -4 -30 -20z"/>
<path d="M10425 7740 c-11 -35 3 -60 36 -60 34 0 40 20 7 21 -22 0 -22 1 2 12
14 6 26 12 28 13 1 0 0 9 -4 18 -9 24 -61 21 -69 -4z"/>
<path d="M9972 7539 c-53 -27 -88 -77 -102 -147 -12 -65 -5 -99 37 -187 24
-51 33 -83 33 -122 0 -29 5 -53 10 -53 6 0 10 26 10 58 0 47 -7 73 -36 131
-27 56 -35 84 -35 127 0 123 74 197 199 197 110 0 181 -51 198 -144 4 -19 17
-52 30 -75 30 -51 30 -62 -1 -76 -21 -10 -25 -18 -25 -58 0 -59 -21 -80 -79
-80 l-42 0 3 -35 c3 -38 21 -49 26 -16 2 13 14 21 36 25 44 8 74 42 82 95 5
29 16 52 32 66 l25 22 -30 54 c-17 30 -34 70 -37 90 -9 54 -57 113 -105 133
-61 24 -175 22 -229 -5z"/>
<path d="M9890 6480 l0 -220 220 0 220 0 0 220 0 220 -220 0 -220 0 0 -220z"/>
<path d="M9890 6010 l0 -220 225 0 224 0 -2 218 -2 217 -222 3 -223 2 0 -220z"/>
<path d="M11806 6079 c-3 -13 -19 -109 -36 -214 -17 -104 -33 -203 -36 -220
-3 -16 -28 -156 -55 -310 -28 -162 -47 -294 -44 -315 4 -28 3 -31 -5 -15 -7
15 -8 6 -4 -35 4 -41 2 -51 -6 -40 -8 12 -10 10 -6 -10 14 -75 16 -111 6 -105
-8 5 -9 -4 -5 -28 4 -20 3 -37 -3 -41 -6 -4 -8 -23 -6 -44 5 -29 3 -34 -6 -22
-10 12 -11 10 -5 -10 9 -34 8 -49 -10 -210 -2 -25 11 32 30 125 19 94 33 175
31 180 -2 6 -6 -9 -11 -33 -4 -24 -9 -41 -11 -39 -3 3 9 101 26 218 16 118 37
264 45 324 25 187 96 686 110 775 8 46 12 86 10 88 -2 3 -6 -6 -9 -19z m-149
-971 c-3 -7 -5 -2 -5 12 0 14 2 19 5 13 2 -7 2 -19 0 -25z m-10 -60 c-3 -7 -5
-2 -5 12 0 14 2 19 5 13 2 -7 2 -19 0 -25z m-10 -160 c-3 -8 -6 -5 -6 6 -1 11
2 17 5 13 3 -3 4 -12 1 -19z"/>
<path d="M673 5945 c-7 -20 2 -29 21 -22 9 4 13 13 10 22 -8 19 -23 19 -31 0z"/>
<path d="M4150 5943 c-13 -3 -15 -17 -12 -73 3 -46 0 -75 -8 -85 -11 -13 -7
-15 21 -15 l34 0 -3 83 c-4 86 -7 96 -32 90z"/>
<path d="M4230 5943 c-12 -3 -15 -21 -15 -88 0 -84 0 -85 25 -85 25 0 25 0 22
83 -4 86 -7 96 -32 90z"/>
<path d="M4307 5944 c-14 -14 -7 -35 11 -32 9 2 17 10 17 17 0 16 -18 25 -28
15z"/>
<path d="M6078 5943 c-20 -5 -23 -18 -8 -28 6 -3 10 -30 10 -60 0 -30 -4 -57
-10 -60 -21 -13 -9 -25 25 -25 34 0 46 12 25 25 -5 3 -10 40 -10 81 0 41 -3
73 -7 73 -5 -1 -16 -3 -25 -6z"/>
<path d="M6158 5943 c-20 -5 -23 -18 -8 -28 6 -3 10 -30 10 -60 0 -30 -4 -57
-10 -60 -21 -13 -9 -25 25 -25 34 0 46 12 25 25 -5 3 -10 40 -10 81 0 41 -3
73 -7 73 -5 -1 -16 -3 -25 -6z"/>
<path d="M6237 5944 c-9 -10 4 -34 19 -34 8 0 14 9 14 20 0 19 -19 27 -33 14z"/>
<path d="M8110 5934 c-12 -4 -15 -22 -15 -89 l0 -85 35 0 c26 0 31 3 22 12 -7
7 -12 43 -12 90 0 43 -3 77 -7 77 -5 -1 -15 -3 -23 -5z"/>
<path d="M8190 5934 c-12 -4 -15 -22 -15 -89 l0 -85 33 0 c17 0 32 5 32 10 0
6 -4 10 -10 10 -6 0 -10 33 -10 80 0 44 -3 79 -7 79 -5 -1 -15 -3 -23 -5z"/>
<path d="M8264 5929 c-3 -6 -2 -15 4 -21 13 -13 32 -2 32 18 0 16 -26 19 -36
3z"/>
<path d="M1180 5905 c-17 -18 -21 -28 -13 -33 6 -4 13 -25 15 -47 3 -37 5 -40
36 -43 35 -4 44 13 12 23 -14 4 -20 15 -20 36 0 22 5 29 20 29 11 0 20 7 20
15 0 8 -9 15 -19 15 -11 0 -21 7 -23 16 -2 13 -8 10 -28 -11z"/>
<path d="M668 5894 c-3 -3 -4 -23 -1 -45 4 -24 1 -45 -7 -54 -11 -13 -8 -15
23 -15 l35 0 -5 48 c-3 26 -6 53 -8 60 -4 12 -27 17 -37 6z"/>
<path d="M749 5896 c0 0 -1 -27 -2 -59 -2 -56 -2 -57 26 -57 24 0 27 3 21 25
-11 45 -9 59 9 63 23 5 33 -24 20 -59 -11 -28 -11 -29 24 -29 28 0 33 3 25 13
-6 7 -12 33 -14 57 l-3 45 -52 1 c-29 1 -53 1 -54 0z"/>
<path d="M890 5890 c-9 -5 -9 -9 -1 -14 15 -10 14 -119 -1 -134 -9 -9 -4 -12
25 -12 32 0 36 3 34 22 -1 15 4 23 18 26 11 2 26 9 33 14 16 14 16 83 -1 96
-14 12 -88 14 -107 2z m86 -44 c7 -29 -1 -46 -22 -46 -9 0 -14 11 -14 35 0 41
26 49 36 11z"/>
<path d="M1027 5894 c-6 -6 -3 -33 9 -91 4 -21 10 -23 63 -23 l58 0 -5 53 c-5
57 -13 73 -35 64 -12 -4 -14 -16 -10 -46 5 -37 3 -41 -16 -41 -18 0 -21 6 -21
45 0 37 -3 45 -18 45 -10 0 -21 -3 -25 -6z"/>
<path d="M3315 5879 c-3 -4 -1 -10 5 -14 13 -8 13 -51 0 -76 -10 -17 -7 -19
25 -19 34 0 46 12 25 25 -5 3 -10 19 -10 36 0 23 4 29 21 29 20 0 21 -4 17
-45 -5 -44 -5 -45 22 -45 27 0 27 1 22 46 -4 41 -3 46 14 42 15 -3 19 -12 17
-46 -2 -41 -1 -42 29 -42 23 0 28 3 20 13 -6 7 -12 33 -14 57 l-3 45 -93 1
c-51 1 -95 -2 -97 -7z"/>
<path d="M3547 5883 c-8 -14 9 -48 17 -35 10 16 49 16 44 0 -3 -7 -14 -14 -26
-16 -26 -4 -46 -27 -38 -47 4 -11 21 -15 61 -15 54 0 65 6 46 26 -5 5 -11 27
-13 49 -3 39 -4 40 -45 43 -22 2 -43 -1 -46 -5z m63 -83 c0 -5 -6 -10 -14 -10
-8 0 -18 5 -21 10 -3 6 3 10 14 10 12 0 21 -4 21 -10z"/>
<path d="M3670 5884 c0 -3 9 -17 20 -32 l20 -25 -20 -22 c-26 -28 -25 -35 4
-35 13 0 23 6 22 13 0 6 3 12 9 12 5 0 9 -6 7 -12 -2 -8 8 -13 28 -13 35 0 36
2 14 36 -15 23 -15 26 0 43 22 24 20 41 -3 41 -12 0 -21 -8 -24 -22 l-4 -23
-8 23 c-5 16 -15 22 -36 22 -16 0 -29 -3 -29 -6z"/>
<path d="M3854 5879 c-3 -5 -2 -15 4 -22 13 -17 15 -104 2 -112 -21 -13 -9
-25 25 -25 33 0 48 14 23 22 -19 7 -1 25 32 31 34 7 49 44 34 86 -8 23 -15 26
-61 28 -29 1 -55 -2 -59 -8z m84 -51 c-2 -21 -8 -33 -18 -33 -10 0 -16 12 -18
33 -3 27 0 32 18 32 18 0 21 -5 18 -32z"/>
<path d="M4006 5868 c-33 -47 -13 -98 39 -98 41 0 65 22 65 60 0 16 -7 36 -16
44 -23 24 -70 20 -88 -6z m64 -44 c0 -28 -3 -35 -17 -32 -12 2 -19 14 -21 36
-3 27 0 32 17 32 17 0 21 -6 21 -36z"/>
<path d="M4299 5888 c0 -2 -1 -29 -2 -61 -2 -56 -2 -57 27 -57 22 0 27 4 22
16 -3 9 -6 36 -6 60 0 37 -3 44 -20 44 -11 0 -20 -1 -21 -2z"/>
<path d="M4379 5887 c0 -1 -1 -28 -2 -60 -2 -55 -1 -57 24 -57 26 0 26 2 21
46 -4 41 -3 46 14 42 15 -3 19 -12 17 -46 -2 -40 -1 -42 28 -42 30 0 36 9 20
26 -5 5 -11 27 -13 49 l-3 40 -52 2 c-29 1 -53 1 -54 0z"/>
<path d="M4533 5878 c-6 -7 -10 -44 -9 -83 1 -69 1 -70 30 -73 15 -2 39 -1 53
3 19 4 24 11 21 33 -2 20 -9 28 -28 30 -36 5 -50 22 -17 22 19 0 31 8 42 30 8
16 15 34 15 40 0 14 -95 13 -107 -2z m55 -31 c2 -10 -3 -17 -12 -17 -10 0 -16
9 -16 21 0 24 23 21 28 -4z m-4 -83 c9 -3 16 -10 16 -16 0 -14 -43 -5 -48 10
-4 13 7 15 32 6z"/>
<path d="M5255 5880 c-3 -5 -1 -11 5 -15 13 -8 13 -62 0 -70 -21 -13 -9 -25
25 -25 32 0 35 2 25 19 -5 11 -10 31 -10 45 0 20 5 26 21 26 20 0 21 -4 17
-45 -5 -44 -5 -45 22 -45 27 0 27 1 22 45 -4 36 -2 45 11 45 20 0 30 -30 21
-64 -6 -24 -4 -26 26 -26 25 0 30 3 22 13 -6 7 -12 33 -14 57 l-3 45 -92 2
c-51 0 -95 -3 -98 -7z"/>
<path d="M5484 5875 c-9 -22 5 -38 22 -24 15 12 49 5 40 -10 -3 -4 -19 -11
-36 -14 -24 -5 -30 -12 -30 -31 0 -24 3 -25 54 -25 l53 1 -4 47 c-3 25 -6 52
-8 59 -6 18 -84 16 -91 -3z m61 -75 c-3 -5 -13 -10 -21 -10 -8 0 -14 5 -14 10
0 6 9 10 21 10 11 0 17 -4 14 -10z"/>
<path d="M5610 5881 c0 -5 7 -14 15 -21 8 -7 15 -20 15 -30 0 -10 -7 -23 -15
-30 -21 -17 -19 -30 5 -30 11 0 20 7 20 15 0 8 5 15 10 15 6 0 10 -7 10 -15 0
-10 10 -15 30 -15 34 0 37 6 13 32 -16 18 -16 21 0 47 22 37 21 41 -3 41 -13
0 -20 -7 -20 -20 0 -11 -4 -20 -10 -20 -5 0 -10 9 -10 20 0 16 -7 20 -30 20
-16 0 -30 -4 -30 -9z"/>
<path d="M5799 5887 c0 -1 -1 -39 -2 -85 l-2 -82 34 0 c29 0 32 2 21 15 -15
18 -5 31 25 37 10 2 26 15 35 31 13 24 13 30 0 55 -13 23 -23 27 -63 29 -26 1
-47 1 -48 0z m76 -62 c0 -20 -6 -31 -17 -33 -15 -3 -18 4 -18 33 0 29 3 36 18
33 11 -2 17 -13 17 -33z"/>
<path d="M5947 5872 c-21 -23 -22 -75 -3 -91 26 -21 79 -9 96 22 13 24 13 30
0 55 -20 34 -68 42 -93 14z m58 -46 c0 -36 -20 -45 -35 -16 -15 27 -5 53 17
48 12 -2 18 -13 18 -32z"/>
<path d="M6225 5881 c-3 -5 -1 -12 5 -16 13 -8 13 -62 0 -70 -21 -13 -9 -25
25 -25 34 0 46 12 25 25 -5 3 -10 26 -10 51 0 37 -3 44 -19 44 -11 0 -22 -4
-26 -9z"/>
<path d="M6305 5880 c-3 -5 -1 -11 5 -15 13 -8 13 -62 0 -70 -21 -13 -8 -25
27 -25 29 0 34 3 25 12 -7 7 -12 27 -12 45 0 27 4 33 21 33 20 0 21 -4 17 -45
-5 -44 -5 -45 22 -45 27 0 27 1 22 48 -2 26 -9 52 -14 59 -11 13 -105 16 -113
3z"/>
<path d="M6465 5874 c-10 -10 -13 -23 -9 -33 4 -9 6 -27 5 -41 -1 -14 -3 -36
-4 -50 -2 -23 2 -25 44 -28 32 -2 50 2 58 12 15 18 8 44 -14 51 -49 16 -51 18
-25 24 14 4 29 17 35 29 5 12 13 22 17 22 5 0 8 7 8 15 0 22 -93 21 -115 -1z
m59 -12 c8 -13 -11 -35 -23 -28 -16 10 -14 36 3 36 8 0 17 -4 20 -8z m-10 -98
c22 -9 20 -24 -3 -24 -21 0 -34 13 -24 24 8 7 8 7 27 0z"/>
<path d="M7289 5876 c0 0 -1 -27 -2 -59 l-2 -57 35 0 c26 0 31 3 22 12 -7 7
-12 27 -12 45 0 27 4 33 21 33 20 0 21 -4 17 -45 -5 -44 -5 -45 23 -45 29 0
38 13 19 25 -5 3 -10 19 -10 36 0 23 4 29 21 29 20 0 21 -4 17 -45 -5 -44 -5
-45 23 -45 26 0 27 2 23 38 -12 86 -4 80 -104 80 -49 0 -90 -1 -91 -2z"/>
<path d="M7514 5865 c-8 -21 5 -40 19 -26 15 15 50 14 45 -1 -3 -7 -19 -16
-37 -20 -26 -7 -32 -13 -29 -31 3 -19 10 -22 54 -25 l52 -3 -5 48 c-3 26 -6
54 -8 61 -6 18 -84 16 -91 -3z m58 -77 c-9 -9 -15 -9 -24 0 -9 9 -7 12 12 12
19 0 21 -3 12 -12z"/>
<path d="M7640 5873 c0 -3 8 -15 17 -25 16 -18 16 -21 0 -47 -21 -37 -21 -41
2 -41 10 0 22 10 26 23 l8 22 4 -22 c3 -18 11 -23 34 -23 33 0 36 6 12 32 -14
16 -14 22 -2 46 7 15 15 30 17 35 2 4 -5 7 -16 7 -12 0 -23 -9 -27 -22 l-8
-23 -4 23 c-3 17 -11 22 -34 22 -16 0 -29 -3 -29 -7z"/>
<path d="M7825 5795 l0 -85 28 0 c24 0 27 3 21 25 -5 22 -3 25 19 25 32 0 50
23 49 61 -1 45 -18 59 -71 59 l-46 0 0 -85z m80 20 c0 -20 -6 -31 -17 -33 -15
-3 -18 4 -18 33 0 29 3 36 18 33 11 -2 17 -13 17 -33z"/>
<path d="M7976 5865 c-20 -20 -21 -78 -2 -94 8 -7 30 -11 48 -9 70 7 72 109 2
116 -19 2 -38 -3 -48 -13z m62 -44 c2 -13 -1 -28 -7 -34 -15 -15 -41 10 -41
40 0 20 4 24 23 21 14 -2 23 -11 25 -27z"/>
<path d="M8254 5869 c-3 -6 -1 -16 5 -22 14 -14 14 -54 1 -62 -21 -13 -8 -25
27 -25 29 0 34 3 25 12 -7 7 -12 34 -12 60 0 41 -3 48 -19 48 -11 0 -23 -5
-27 -11z"/>
<path d="M8335 5870 c-3 -5 -1 -11 5 -15 13 -8 13 -62 0 -70 -21 -13 -9 -25
25 -25 34 0 46 12 25 25 -5 3 -10 19 -10 36 0 23 4 29 21 29 19 0 21 -5 17
-45 l-3 -45 34 0 c27 0 32 3 23 12 -7 7 -12 28 -12 48 0 19 -4 40 -8 46 -8 13
-110 16 -117 4z"/>
<path d="M8488 5855 c-8 -18 -8 -28 1 -38 8 -10 8 -22 0 -46 -17 -47 -7 -61
44 -61 79 0 90 53 16 74 l-34 9 30 6 c18 4 34 15 40 29 5 12 13 22 17 22 5 0
8 7 8 15 0 12 -13 15 -55 15 -49 0 -57 -3 -67 -25z m62 -15 c0 -11 -7 -20 -15
-20 -8 0 -15 9 -15 20 0 11 7 20 15 20 8 0 15 -9 15 -20z m-6 -86 c9 -3 16
-10 16 -16 0 -14 -43 -5 -48 10 -4 13 7 15 32 6z"/>
<path d="M9892 5533 l3 -218 220 0 220 0 2 218 3 217 -225 0 -225 0 2 -217z"/>
<path d="M2210 5125 l0 -565 40 0 40 0 0 -45 0 -45 40 0 c25 0 41 -5 42 -12 0
-7 2 -17 3 -23 2 -5 3 -18 4 -27 1 -14 10 -18 41 -18 l40 0 0 -45 0 -45 565 0
565 0 0 369 c0 344 -1 370 -17 374 -17 4 -17 5 0 6 16 1 17 17 17 196 l0 195
-40 0 c-40 0 -40 0 -40 39 0 40 0 40 -42 43 -43 3 -43 3 -46 46 -3 42 -3 42
-43 42 -39 0 -39 0 -39 40 l0 40 -565 0 -565 0 0 -565z m1095 510 c0 -20 -8
-20 -505 -25 l-505 -5 -3 -297 c-2 -293 -2 -298 18 -298 20 0 20 6 20 280 l0
280 491 0 490 0 -3 -22 -3 -23 -462 -3 c-432 -2 -463 -3 -464 -20 -6 -86 5
-498 13 -501 6 -2 6 -6 -2 -11 -9 -5 -12 -61 -13 -200 -2 -192 -2 -193 -24
-196 l-23 -4 -1 168 c-2 244 -1 236 -22 240 -16 3 -19 -2 -17 -35 2 -21 2
-111 1 -201 -1 -138 -3 -164 -17 -169 -8 -3 -20 -1 -25 4 -10 10 -14 1037 -3
1054 3 5 221 8 532 7 519 -3 527 -3 527 -23z m83 -87 c-2 -15 -11 -24 -25 -26
-19 -3 -23 1 -23 22 0 21 5 26 26 26 21 0 25 -4 22 -22z m-83 -83 c0 -20 -8
-20 -422 -23 l-423 -2 0 -417 c0 -229 -4 -421 -8 -425 -5 -5 -16 -6 -25 -2
-16 6 -17 45 -17 450 l0 444 448 -2 c439 -3 447 -3 447 -23z m83 3 c-2 -15
-10 -23 -23 -23 -13 0 -21 8 -23 23 -3 18 1 22 23 22 22 0 26 -4 23 -22z m82
-4 c0 -21 -4 -25 -22 -22 -15 2 -24 11 -26 26 -3 18 1 22 22 22 21 0 26 -5 26
-26z m-161 -253 c9 -6 10 -11 2 -15 -6 -4 -11 -34 -11 -66 0 -46 4 -61 18 -69
15 -9 15 -10 -5 -11 -13 0 -23 5 -23 11 0 6 -7 8 -15 5 -9 -3 -43 -3 -75 1
l-60 6 0 73 0 74 78 0 c42 0 83 -4 91 -9z m64 -18 c-7 -2 -19 -2 -25 0 -7 3
-2 5 12 5 14 0 19 -2 13 -5z m70 -10 c-7 -2 -19 -2 -25 0 -7 3 -2 5 12 5 14 0
19 -2 13 -5z m57 -3 c8 -5 11 -10 5 -10 -5 0 -17 5 -25 10 -8 5 -10 10 -5 10
6 0 17 -5 25 -10z m67 -6 c-3 -3 -12 -4 -19 -1 -8 3 -5 6 6 6 11 1 17 -2 13
-5z m-174 -121 c-7 -2 -19 -2 -25 0 -7 3 -2 5 12 5 14 0 19 -2 13 -5z m70 0
c-7 -2 -19 -2 -25 0 -7 3 -2 5 12 5 14 0 19 -2 13 -5z m60 -10 c-7 -2 -19 -2
-25 0 -7 3 -2 5 12 5 14 0 19 -2 13 -5z m-926 -59 c-3 -3 -12 -4 -19 -1 -8 3
-5 6 6 6 11 1 17 -2 13 -5z m136 -11 c-7 -2 -19 -2 -25 0 -7 3 -2 5 12 5 14 0
19 -2 13 -5z m54 1 c-3 -3 -12 -4 -19 -1 -8 3 -5 6 6 6 11 1 17 -2 13 -5z m80
-10 c-3 -3 -12 -4 -19 -1 -8 3 -5 6 6 6 11 1 17 -2 13 -5z m73 -4 c0 -5 -9
-10 -20 -10 -11 0 -20 5 -20 10 0 6 9 10 20 10 11 0 20 -4 20 -10z m53 -7 c-7
-2 -19 -2 -25 0 -7 3 -2 5 12 5 14 0 19 -2 13 -5z m-266 -9 c-3 -3 -12 -4 -19
-1 -8 3 -5 6 6 6 11 1 17 -2 13 -5z m66 -1 c-7 -2 -19 -2 -25 0 -7 3 -2 5 12
5 14 0 19 -2 13 -5z m-270 -10 c-7 -2 -19 -2 -25 0 -7 3 -2 5 12 5 14 0 19 -2
13 -5z m-149 -382 c10 -16 -5 -41 -25 -41 -14 0 -19 7 -19 25 0 18 5 25 19 25
11 0 22 -4 25 -9z m86 -16 c0 -20 -5 -25 -25 -25 -20 0 -25 5 -25 25 0 20 5
25 25 25 20 0 25 -5 25 -25z m0 -90 c0 -20 -5 -25 -25 -25 -20 0 -25 5 -25 25
0 20 5 25 25 25 20 0 25 -5 25 -25z"/>
<path d="M3164 5197 c-3 -8 -4 -36 -2 -63 l3 -49 58 -3 58 -3 -3 63 -3 63 -53
3 c-38 2 -54 -1 -58 -11z"/>
<path d="M15017 5632 c-10 -11 -13 -22 -8 -28 6 -5 11 -27 13 -49 3 -37 5 -40
32 -40 16 0 31 6 34 13 2 7 -5 12 -17 12 -29 0 -30 56 -1 65 11 3 20 11 20 16
0 5 -9 9 -20 9 -11 0 -20 5 -20 10 0 16 -15 12 -33 -8z"/>
<path d="M15379 5634 c-14 -17 -13 -78 2 -106 12 -22 59 -24 59 -3 0 8 -7 15
-15 15 -25 0 -19 55 8 68 l22 11 -22 7 c-13 3 -23 10 -23 15 0 14 -16 10 -31
-7z"/>
<path d="M14766 5608 c-32 -45 -10 -98 39 -98 33 0 55 26 55 65 0 54 -64 76
-94 33z m62 -47 c-2 -15 -9 -26 -18 -26 -16 0 -25 37 -16 62 10 25 38 -5 34
-36z"/>
<path d="M14877 5624 c-6 -6 -3 -33 9 -91 4 -20 10 -22 56 -20 l52 2 -3 50
c-3 55 -12 71 -34 62 -12 -4 -14 -16 -10 -47 5 -37 4 -42 -13 -38 -14 2 -20
13 -22 46 -3 39 -17 53 -35 36z"/>
<path d="M15109 5624 c0 -2 -1 -39 -1 -81 -1 -77 -1 -78 26 -81 24 -3 26 -1
20 22 -5 21 -3 26 13 26 43 0 73 81 41 108 -12 9 -97 14 -99 6z m77 -50 c4
-17 2 -29 -7 -34 -19 -13 -29 -2 -29 31 0 37 27 39 36 3z"/>
<path d="M15237 5624 c-6 -6 -3 -33 9 -91 4 -20 10 -22 56 -20 l52 2 -3 50
c-3 55 -12 71 -34 62 -12 -4 -14 -16 -10 -47 5 -37 4 -42 -13 -38 -14 2 -20
13 -22 46 -3 39 -17 53 -35 36z"/>
<path d="M4380 5309 c0 -236 3 -300 13 -296 14 5 13 -12 15 315 l2 252 447 -2
c417 -3 448 -4 451 -20 3 -17 -22 -18 -427 -18 l-430 0 -3 -237 c-3 -256 -2
-293 12 -293 6 0 11 106 12 248 l3 247 415 0 c362 0 415 -2 415 -15 0 -13 -51
-15 -392 -18 l-393 -2 0 -234 c0 -178 3 -236 13 -239 10 -4 10 -6 0 -6 -10 -1
-13 -39 -13 -156 l0 -155 -25 0 -25 0 0 160 c0 100 -4 160 -10 160 -6 0 -10
-60 -10 -160 0 -153 -1 -160 -20 -160 -18 0 -20 8 -22 157 -2 114 -6 157 -15
161 -10 3 -13 -36 -13 -172 l0 -175 33 -3 c28 -3 32 -7 35 -35 3 -28 7 -32 35
-35 28 -3 32 -7 35 -35 3 -30 6 -33 38 -33 33 0 34 -1 34 -39 0 -37 2 -40 33
-43 28 -3 32 -7 35 -35 3 -30 6 -33 38 -33 32 0 34 -2 34 -34 0 -32 3 -35 33
-38 28 -3 32 -7 35 -35 l3 -33 480 0 479 0 -1 480 0 480 -34 0 c-32 0 -34 2
-37 38 -3 34 -6 37 -35 40 -28 3 -32 7 -35 35 -3 28 -7 33 -38 37 -19 3 -36
11 -36 18 -1 6 -2 21 -3 32 -1 15 -8 20 -30 20 -26 0 -30 4 -33 33 -3 28 -7
32 -35 35 -22 2 -33 9 -34 20 -1 9 -2 24 -3 32 -1 10 -14 16 -38 18 -36 3 -38
5 -38 38 l0 34 -475 0 -475 0 0 -301z m998 178 c3 -12 -3 -17 -22 -17 -25 0
-35 18 -19 34 12 12 38 2 41 -17z m-70 -69 c3 -17 -19 -18 -358 -18 l-361 0 1
-202 c2 -522 2 -518 -20 -518 -19 0 -20 7 -20 178 0 125 -4 182 -12 190 -9 9
-9 12 0 12 9 0 12 49 12 190 l0 190 377 -2 c351 -3 378 -4 381 -20z m70 -1 c3
-12 -3 -17 -22 -17 -25 0 -35 18 -19 34 12 12 38 2 41 -17z m70 0 c2 -12 -3
-17 -17 -17 -15 0 -21 6 -21 21 0 25 33 22 38 -4z m-140 -69 c3 -17 -17 -18
-322 -18 l-326 0 -1 -167 c0 -93 0 -239 1 -325 1 -153 1 -158 -19 -158 -20 0
-21 6 -22 138 0 75 0 156 1 180 1 27 -3 42 -10 42 -9 0 -9 4 -2 13 7 8 11 63
11 138 0 68 0 136 0 152 l1 27 342 -2 c317 -3 343 -4 346 -20z m70 -1 c3 -12
-3 -17 -22 -17 -25 0 -35 18 -19 34 12 12 38 2 41 -17z m72 3 c0 -13 -7 -20
-20 -20 -13 0 -20 7 -20 20 0 13 7 20 20 20 13 0 20 -7 20 -20z m68 -3 c2 -12
-3 -17 -17 -17 -15 0 -21 6 -21 21 0 25 33 22 38 -4z m-210 -69 c3 -17 -16
-18 -287 -18 l-291 0 0 -290 c0 -283 0 -290 -20 -290 -20 0 -20 7 -20 310 l0
310 307 -2 c284 -3 308 -4 311 -20z m70 -1 c3 -12 -3 -17 -22 -17 -25 0 -35
18 -19 34 12 12 38 2 41 -17z m70 0 c2 -12 -3 -17 -17 -17 -15 0 -21 6 -21 21
0 25 33 22 38 -4z m70 0 c2 -12 -3 -17 -17 -17 -15 0 -21 6 -21 21 0 25 33 22
38 -4z m70 0 c3 -12 -3 -17 -22 -17 -25 0 -35 18 -19 34 12 12 38 2 41 -17z
m-283 -72 c0 -19 -8 -20 -252 -23 l-253 -2 0 -75 c0 -59 3 -75 14 -75 8 0 18
-5 22 -11 4 -8 0 -9 -15 -4 -21 6 -21 5 -21 -164 0 -164 -1 -171 -20 -171 -20
0 -20 7 -20 275 l0 275 273 -2 c264 -3 272 -4 272 -23z m73 2 c4 -20 -25 -34
-40 -19 -15 15 -1 44 19 40 10 -2 19 -11 21 -21z m72 3 c0 -24 -29 -38 -40
-20 -12 19 -1 40 21 40 12 0 19 -7 19 -20z m65 -5 c0 -11 -8 -21 -17 -23 -14
-3 -18 3 -18 23 0 20 4 26 18 23 9 -2 17 -12 17 -23z m75 5 c0 -23 -26 -38
-41 -23 -14 14 0 43 22 43 12 0 19 -7 19 -20z m68 -2 c-5 -34 -38 -37 -38 -4
0 20 5 26 21 26 15 0 20 -5 17 -22z m-81 -164 c3 -8 6 -41 7 -74 l1 -60 -72 0
-73 0 0 74 0 74 66 0 c46 0 67 -5 71 -14z m70 -20 c-3 -3 -12 -4 -19 -1 -8 3
-5 6 6 6 11 1 17 -2 13 -5z m-754 -11 c-7 -2 -19 -2 -25 0 -7 3 -2 5 12 5 14
0 19 -2 13 -5z m820 0 c-7 -2 -19 -2 -25 0 -7 3 -2 5 12 5 14 0 19 -2 13 -5z
m-750 -10 c-7 -2 -19 -2 -25 0 -7 3 -2 5 12 5 14 0 19 -2 13 -5z m70 -10 c-7
-2 -19 -2 -25 0 -7 3 -2 5 12 5 14 0 19 -2 13 -5z m-170 -10 c-7 -2 -19 -2
-25 0 -7 3 -2 5 12 5 14 0 19 -2 13 -5z m240 0 c3 -5 -14 -9 -37 -9 -30 -1
-36 1 -21 6 26 11 53 12 58 3z m111 -9 c27 -2 51 -6 54 -9 3 -3 -21 -3 -54 0
-83 7 -84 7 -84 18 0 5 8 6 18 2 9 -4 39 -9 66 -11z m-221 -1 c-7 -2 -19 -2
-25 0 -7 3 -2 5 12 5 14 0 19 -2 13 -5z m654 -59 c-3 -3 -12 -4 -19 -1 -8 3
-5 6 6 6 11 1 17 -2 13 -5z m-1127 -284 c0 -15 -7 -20 -25 -20 -18 0 -25 5
-25 20 0 15 7 20 25 20 18 0 25 -5 25 -20z m70 0 c0 -13 -7 -20 -20 -20 -13 0
-20 7 -20 20 0 13 7 20 20 20 13 0 20 -7 20 -20z m70 0 c0 -13 -7 -20 -20 -20
-13 0 -20 7 -20 20 0 13 7 20 20 20 13 0 20 -7 20 -20z m70 0 c0 -13 -7 -20
-20 -20 -13 0 -20 7 -20 20 0 13 7 20 20 20 13 0 20 -7 20 -20z m70 0 c0 -13
-7 -20 -20 -20 -13 0 -20 7 -20 20 0 13 7 20 20 20 13 0 20 -7 20 -20z m-212
-73 c2 -12 -3 -17 -17 -17 -15 0 -21 6 -21 21 0 25 33 22 38 -4z m70 0 c2 -12
-3 -17 -17 -17 -15 0 -21 6 -21 21 0 25 33 22 38 -4z m72 3 c0 -13 -7 -20 -20
-20 -13 0 -20 7 -20 20 0 13 7 20 20 20 13 0 20 -7 20 -20z m68 -3 c2 -12 -3
-17 -17 -17 -15 0 -21 6 -21 21 0 25 33 22 38 -4z m-138 -72 c0 -18 -5 -25
-20 -25 -15 0 -20 7 -20 25 0 18 5 25 20 25 15 0 20 -7 20 -25z m70 0 c0 -18
-5 -25 -20 -25 -15 0 -20 7 -20 25 0 18 5 25 20 25 15 0 20 -7 20 -25z m70 0
c0 -18 -5 -25 -20 -25 -15 0 -20 7 -20 25 0 18 5 25 20 25 15 0 20 -7 20 -25z
m-70 -75 c0 -13 -7 -20 -20 -20 -13 0 -20 7 -20 20 0 13 7 20 20 20 13 0 20
-7 20 -20z m68 -3 c2 -12 -3 -17 -17 -17 -15 0 -21 6 -21 21 0 25 33 22 38 -4z
m2 -67 c0 -13 -7 -20 -20 -20 -13 0 -20 7 -20 20 0 13 7 20 20 20 13 0 20 -7
20 -20z"/>
<path d="M5453 5024 c-2 -7 -3 -29 -1 -50 l3 -39 53 -3 52 -3 0 50 c0 44 -3
51 -22 56 -35 7 -80 1 -85 -11z"/>
<path d="M11807 5603 c-4 -3 -7 -17 -7 -30 0 -13 -34 -192 -75 -398 -62 -313
-73 -382 -66 -420 5 -24 5 -42 1 -40 -11 7 -21 -71 -15 -113 4 -30 3 -33 -5
-17 -8 15 -9 8 -5 -30 5 -38 3 -46 -5 -35 -9 11 -10 3 -6 -35 3 -27 2 -42 -2
-32 -4 11 -7 -17 -7 -65 0 -46 -2 -87 -6 -93 -4 -5 -9 -39 -12 -75 l-6 -65 24
90 c23 83 33 152 15 95 -13 -40 -11 -2 5 100 8 52 37 244 65 425 27 182 65
422 84 535 19 113 33 206 32 207 -1 2 -6 0 -9 -4z m-133 -782 c-4 -23 -9 -40
-11 -37 -3 3 -2 23 2 46 4 23 9 39 11 37 3 -2 2 -23 -2 -46z m-17 -183 c-3 -8
-6 -5 -6 6 -1 11 2 17 5 13 3 -3 4 -12 1 -19z"/>
<path d="M240 4990 l0 -600 163 0 162 0 22 43 c13 23 30 62 38 87 20 57 56
119 87 147 13 13 60 36 104 51 108 39 117 56 76 155 -28 67 -30 78 -25 164 3
50 9 97 14 105 6 9 36 14 94 17 109 4 152 -4 160 -29 4 -11 12 -20 19 -20 7 0
23 -9 36 -20 21 -18 22 -25 15 -72 -4 -29 -8 -70 -9 -91 -1 -31 -5 -39 -24
-44 -21 -5 -62 -63 -45 -63 5 0 16 -17 25 -38 14 -32 25 -42 65 -56 149 -53
184 -86 226 -209 11 -34 29 -76 40 -94 l19 -33 164 0 164 0 0 600 0 600 -795
0 -795 0 0 -600z m1093 73 c-7 -2 -19 -2 -25 0 -7 3 -2 5 12 5 14 0 19 -2 13
-5z m130 -10 c-7 -2 -19 -2 -25 0 -7 3 -2 5 12 5 14 0 19 -2 13 -5z m70 0 c-7
-2 -19 -2 -25 0 -7 3 -2 5 12 5 14 0 19 -2 13 -5z m64 -9 c-3 -3 -12 -4 -19
-1 -8 3 -5 6 6 6 11 1 17 -2 13 -5z m66 -1 c-7 -2 -19 -2 -25 0 -7 3 -2 5 12
5 14 0 19 -2 13 -5z m72 -3 c8 -13 -5 -13 -25 0 -13 8 -13 10 2 10 9 0 20 -4
23 -10z m58 -7 c-7 -2 -19 -2 -25 0 -7 3 -2 5 12 5 14 0 19 -2 13 -5z m-200
-130 c-7 -2 -19 -2 -25 0 -7 3 -2 5 12 5 14 0 19 -2 13 -5z m64 1 c-3 -3 -12
-4 -19 -1 -8 3 -5 6 6 6 11 1 17 -2 13 -5z m-400 -10 c-3 -3 -12 -4 -19 -1 -8
3 -5 6 6 6 11 1 17 -2 13 -5z m66 -1 c-7 -2 -19 -2 -25 0 -7 3 -2 5 12 5 14 0
19 -2 13 -5z m70 0 c-7 -2 -19 -2 -25 0 -7 3 -2 5 12 5 14 0 19 -2 13 -5z"/>
<path d="M6300 5270 c0 -200 4 -310 10 -310 6 0 10 105 10 294 l0 293 38 7
c20 3 168 6 327 6 308 0 365 -4 365 -26 0 -12 -60 -14 -345 -14 l-345 0 0
-280 c0 -180 4 -280 10 -280 6 0 10 97 10 270 l0 270 333 -2 c287 -3 332 -5
332 -18 0 -13 -38 -15 -275 -17 -151 -1 -294 -2 -317 -3 l-43 0 0 -255 c0
-220 2 -255 15 -255 13 0 15 34 15 245 l0 245 305 0 c264 0 305 -2 305 -15 0
-13 -39 -15 -290 -15 l-290 0 0 -290 c0 -251 -2 -290 -15 -290 -15 0 -20 27
-16 83 2 19 -2 27 -14 27 -12 0 -16 -8 -14 -27 4 -56 -1 -83 -16 -83 -10 0
-15 10 -15 30 0 17 -4 30 -10 30 -5 0 -10 -13 -10 -30 0 -23 -4 -30 -20 -30
-16 0 -20 7 -20 30 0 17 -4 30 -10 30 -5 0 -10 -18 -10 -39 0 -36 3 -40 28
-43 21 -2 28 -9 30 -30 3 -22 9 -28 27 -28 18 0 24 -6 27 -27 2 -22 9 -29 31
-31 21 -3 27 -9 27 -27 0 -18 6 -24 28 -27 21 -2 28 -9 30 -30 3 -22 9 -28 27
-28 18 0 24 -6 27 -27 2 -23 8 -29 36 -31 29 -3 32 -6 32 -37 0 -31 3 -34 33
-37 28 -3 32 -7 35 -35 3 -29 7 -33 32 -33 25 0 29 -4 32 -32 2 -28 8 -34 31
-36 23 -3 27 -8 27 -33 l0 -29 385 0 385 0 0 390 0 390 -25 0 c-21 0 -25 5
-25 30 0 28 -3 30 -35 30 -33 0 -35 2 -35 35 0 33 -2 35 -35 35 -33 0 -35 2
-35 35 0 32 -2 35 -30 35 -27 0 -30 3 -30 30 0 27 -3 30 -30 30 -27 0 -30 3
-30 30 0 27 -3 30 -30 30 -27 0 -30 3 -30 30 0 25 -4 30 -25 30 -20 0 -25 5
-25 25 0 21 -5 25 -30 25 -27 0 -30 3 -30 30 0 27 -3 30 -30 30 -27 0 -30 3
-30 30 l0 30 -385 0 -385 0 0 -310z m800 210 c0 -21 -15 -27 -25 -10 -7 12 2
30 16 30 5 0 9 -9 9 -20z m0 -55 c0 -8 -7 -15 -15 -15 -8 0 -15 7 -15 15 0 8
7 15 15 15 8 0 15 -7 15 -15z m60 0 c0 -8 -7 -15 -15 -15 -8 0 -15 7 -15 15 0
8 7 15 15 15 8 0 15 -7 15 -15z m-112 -57 c3 -17 -14 -18 -257 -18 l-261 0 -1
-207 c-1 -115 -1 -232 0 -260 1 -46 -2 -53 -18 -53 -26 0 -27 8 -23 302 l3
247 32 4 c18 2 142 4 277 3 225 -1 245 -2 248 -18z m52 2 c0 -11 -7 -20 -15
-20 -15 0 -21 21 -8 33 12 13 23 7 23 -13z m60 0 c0 -11 -7 -20 -15 -20 -8 0
-15 9 -15 20 0 11 7 20 15 20 8 0 15 -9 15 -20z m60 -5 c0 -8 -7 -15 -15 -15
-8 0 -15 7 -15 15 0 8 7 15 15 15 8 0 15 -7 15 -15z m-175 -55 c0 -13 -34 -15
-232 -18 l-233 -2 0 -230 c0 -198 -2 -230 -15 -230 -13 0 -15 34 -15 243 0
134 3 247 7 251 4 3 115 5 247 4 206 -3 241 -5 241 -18z m55 -1 c0 -24 -23
-21 -28 4 -2 10 3 17 12 17 10 0 16 -9 16 -21z m58 4 c-5 -25 -28 -28 -28 -4
0 12 6 21 16 21 9 0 14 -7 12 -17z m57 -3 c0 -7 -6 -15 -12 -17 -8 -3 -13 4
-13 17 0 13 5 20 13 18 6 -3 12 -11 12 -18z m55 0 c0 -21 -15 -27 -25 -10 -7
12 2 30 16 30 5 0 9 -9 9 -20z m-220 -60 c0 -19 -7 -20 -200 -20 l-200 0 0
-200 c0 -193 -1 -200 -20 -200 -19 0 -20 7 -20 220 l0 220 220 0 c213 0 220
-1 220 -20z m50 0 c0 -11 -7 -20 -15 -20 -8 0 -15 9 -15 20 0 11 7 20 15 20 8
0 15 -9 15 -20z m60 0 c0 -11 -7 -20 -15 -20 -8 0 -15 9 -15 20 0 11 7 20 15
20 8 0 15 -9 15 -20z m60 0 c0 -11 -7 -20 -15 -20 -8 0 -15 9 -15 20 0 11 7
20 15 20 8 0 15 -9 15 -20z m50 0 c0 -11 -7 -20 -15 -20 -8 0 -15 9 -15 20 0
11 7 20 15 20 8 0 15 -9 15 -20z m60 0 c0 -11 -7 -20 -15 -20 -8 0 -15 9 -15
20 0 11 7 20 15 20 8 0 15 -9 15 -20z m-280 -70 c0 -19 -8 -20 -165 -20 l-165
0 -2 -117 c-1 -65 -1 -140 0 -166 1 -45 0 -48 -21 -45 -21 3 -22 6 -25 185
l-4 182 29 3 c15 2 101 2 191 0 153 -3 162 -4 162 -22z m280 -1 c0 -10 -7 -19
-15 -19 -9 0 -15 9 -15 25 0 18 4 23 15 19 8 -4 15 -15 15 -25z m-230 1 c0
-11 -7 -20 -15 -20 -8 0 -15 9 -15 20 0 11 7 20 15 20 8 0 15 -9 15 -20z m60
0 c0 -11 -7 -20 -15 -20 -8 0 -15 9 -15 20 0 11 7 20 15 20 8 0 15 -9 15 -20z
m60 0 c0 -11 -7 -20 -15 -20 -8 0 -15 9 -15 20 0 11 7 20 15 20 8 0 15 -9 15
-20z m50 0 c0 -11 -7 -20 -15 -20 -8 0 -15 9 -15 20 0 11 7 20 15 20 8 0 15
-9 15 -20z m130 0 c0 -13 -7 -20 -20 -20 -13 0 -20 7 -20 20 0 13 7 20 20 20
13 0 20 -7 20 -20z m-355 -65 c0 -19 -8 -20 -130 -25 l-130 -5 -3 -127 c-2
-120 -4 -128 -22 -128 -19 0 -20 7 -20 155 l0 156 153 -3 c144 -3 152 -4 152
-23z m55 0 c0 -26 -14 -33 -25 -15 -9 14 1 40 15 40 5 0 10 -11 10 -25z m58 3
c-5 -32 -28 -35 -28 -4 0 17 5 26 16 26 10 0 14 -7 12 -22z m57 -3 c0 -10 -6
-20 -12 -22 -8 -3 -13 5 -13 22 0 17 5 25 13 23 6 -3 12 -13 12 -23z m55 0 c0
-26 -14 -33 -25 -15 -9 14 1 40 15 40 5 0 10 -11 10 -25z m58 3 c-5 -32 -28
-35 -28 -4 0 17 5 26 16 26 10 0 14 -7 12 -22z m67 -3 c0 -11 -8 -21 -17 -23
-14 -3 -18 3 -18 23 0 20 4 26 18 23 9 -2 17 -12 17 -23z m73 2 c4 -20 -25
-34 -40 -19 -15 15 -1 44 19 40 10 -2 19 -11 21 -21z m-418 -67 c0 -19 -7 -20
-106 -20 l-106 0 2 -77 c4 -110 2 -123 -15 -123 -12 0 -15 20 -15 120 l0 120
120 0 c113 0 120 -1 120 -20z m50 0 c0 -11 -7 -20 -15 -20 -8 0 -15 9 -15 20
0 11 7 20 15 20 8 0 15 -9 15 -20z m60 0 c0 -11 -7 -20 -15 -20 -8 0 -15 9
-15 20 0 11 7 20 15 20 8 0 15 -9 15 -20z m60 0 c0 -11 -7 -20 -15 -20 -8 0
-15 9 -15 20 0 11 7 20 15 20 8 0 15 -9 15 -20z m50 0 c0 -11 -7 -20 -15 -20
-8 0 -15 9 -15 20 0 11 7 20 15 20 8 0 15 -9 15 -20z m60 0 c0 -11 -7 -20 -15
-20 -8 0 -15 9 -15 20 0 11 7 20 15 20 8 0 15 -9 15 -20z m70 0 c0 -13 -7 -20
-20 -20 -13 0 -20 7 -20 20 0 13 7 20 20 20 13 0 20 -7 20 -20z m65 0 c0 -8
-10 -16 -22 -18 -18 -3 -23 2 -23 18 0 16 5 21 23 18 12 -2 22 -10 22 -18z
m65 0 c0 -13 -7 -20 -20 -20 -13 0 -20 7 -20 20 0 13 7 20 20 20 13 0 20 -7
20 -20z m-243 -227 c-2 -21 -4 -4 -4 37 0 41 2 58 4 38 2 -21 2 -55 0 -75z
m148 97 c17 -7 17 -9 3 -9 -15 -1 -18 -11 -18 -61 0 -33 -3 -60 -7 -60 -5 0
-7 29 -5 64 l4 65 -59 4 -58 3 60 1 c33 1 69 -2 80 -7z m-462 -27 c-7 -2 -19
-2 -25 0 -7 3 -2 5 12 5 14 0 19 -2 13 -5z m544 1 c-3 -3 -12 -4 -19 -1 -8 3
-5 6 6 6 11 1 17 -2 13 -5z m-467 -17 c0 -8 -7 -14 -15 -14 -8 0 -16 6 -19 14
-3 8 2 13 14 13 11 0 20 -6 20 -13z m54 7 c23 -9 20 -24 -4 -24 -11 0 -20 7
-20 15 0 17 2 18 24 9z m-191 -11 c-7 -2 -19 -2 -25 0 -7 3 -2 5 12 5 14 0 19
-2 13 -5z m70 0 c-7 -2 -19 -2 -25 0 -7 3 -2 5 12 5 14 0 19 -2 13 -5z m604 1
c-3 -3 -12 -4 -19 -1 -8 3 -5 6 6 6 11 1 17 -2 13 -5z m-1177 -85 c0 -24 -23
-21 -28 4 -2 10 3 17 12 17 10 0 16 -9 16 -21z m60 1 c0 -11 -7 -20 -15 -20
-8 0 -15 9 -15 20 0 11 7 20 15 20 8 0 15 -9 15 -20z m56 9 c10 -17 -13 -36
-27 -22 -12 12 -4 33 11 33 5 0 12 -5 16 -11z m54 -9 c0 -21 -15 -27 -25 -10
-7 12 2 30 16 30 5 0 9 -9 9 -20z m70 0 c0 -13 -7 -20 -20 -20 -13 0 -20 7
-20 20 0 13 7 20 20 20 13 0 20 -7 20 -20z m68 3 c5 -17 -26 -29 -40 -15 -6 6
-7 15 -3 22 9 14 37 9 43 -7z m62 -4 c0 -14 -5 -19 -17 -17 -26 5 -29 38 -4
38 15 0 21 -6 21 -21z m60 1 c0 -11 -7 -20 -15 -20 -8 0 -15 9 -15 20 0 11 7
20 15 20 8 0 15 -9 15 -20z m687 -26 c-3 -3 -12 -4 -19 -1 -8 3 -5 6 6 6 11 1
17 -2 13 -5z m-1057 -29 c0 -8 -7 -15 -15 -15 -8 0 -15 7 -15 15 0 8 7 15 15
15 8 0 15 -7 15 -15z m60 0 c0 -8 -9 -15 -20 -15 -20 0 -26 11 -13 23 12 13
33 7 33 -8z m50 0 c0 -8 -7 -15 -15 -15 -8 0 -15 7 -15 15 0 8 7 15 15 15 8 0
15 -7 15 -15z m70 0 c0 -8 -9 -15 -20 -15 -11 0 -20 7 -20 15 0 8 9 15 20 15
11 0 20 -7 20 -15z m70 0 c0 -9 -9 -15 -25 -15 -24 0 -32 10 -18 23 12 13 43
7 43 -8z m60 0 c0 -8 -9 -15 -20 -15 -11 0 -20 7 -20 15 0 8 9 15 20 15 11 0
20 -7 20 -15z m60 0 c0 -8 -7 -15 -15 -15 -8 0 -15 7 -15 15 0 8 7 15 15 15 8
0 15 -7 15 -15z m-310 -61 c0 -9 -7 -14 -17 -12 -25 5 -28 28 -4 28 12 0 21
-6 21 -16z m50 1 c0 -8 -7 -15 -15 -15 -8 0 -15 7 -15 15 0 8 7 15 15 15 8 0
15 -7 15 -15z m70 0 c0 -8 -9 -15 -20 -15 -11 0 -20 7 -20 15 0 8 9 15 20 15
11 0 20 -7 20 -15z m70 0 c0 -9 -9 -15 -25 -15 -16 0 -25 6 -25 15 0 9 9 15
25 15 16 0 25 -6 25 -15z m60 0 c0 -8 -9 -15 -20 -15 -11 0 -20 7 -20 15 0 8
9 15 20 15 11 0 20 -7 20 -15z m60 0 c0 -8 -7 -15 -15 -15 -8 0 -15 7 -15 15
0 8 7 15 15 15 8 0 15 -7 15 -15z m-260 -55 c0 -21 -15 -27 -25 -10 -7 12 2
30 16 30 5 0 9 -9 9 -20z m70 0 c0 -13 -7 -20 -20 -20 -13 0 -20 7 -20 20 0
13 7 20 20 20 13 0 20 -7 20 -20z m68 3 c5 -17 -26 -29 -40 -15 -6 6 -7 15 -3
22 9 14 37 9 43 -7z m62 -3 c0 -21 -24 -28 -35 -10 -8 14 3 30 21 30 8 0 14
-9 14 -20z m60 0 c0 -11 -7 -20 -15 -20 -8 0 -15 9 -15 20 0 11 7 20 15 20 8
0 15 -9 15 -20z m-190 -55 c0 -8 -9 -15 -20 -15 -11 0 -20 7 -20 15 0 8 9 15
20 15 11 0 20 -7 20 -15z m70 0 c0 -9 -9 -15 -25 -15 -24 0 -32 10 -18 23 12
13 43 7 43 -8z m60 0 c0 -8 -9 -15 -20 -15 -11 0 -20 7 -20 15 0 8 9 15 20 15
11 0 20 -7 20 -15z m60 0 c0 -8 -7 -15 -15 -15 -8 0 -15 7 -15 15 0 8 7 15 15
15 8 0 15 -7 15 -15z m-120 -70 c0 -18 -5 -25 -19 -25 -11 0 -23 5 -26 10 -11
18 3 40 25 40 15 0 20 -7 20 -25z m60 0 c0 -18 -5 -25 -20 -25 -15 0 -20 7
-20 25 0 18 5 25 20 25 15 0 20 -7 20 -25z m60 0 c0 -16 -6 -25 -15 -25 -9 0
-15 9 -15 25 0 16 6 25 15 25 9 0 15 -9 15 -25z m-57 -58 c8 -20 -9 -41 -27
-34 -23 9 -21 47 3 47 10 0 21 -6 24 -13z m57 -12 c0 -16 -6 -25 -15 -25 -9 0
-15 9 -15 25 0 16 6 25 15 25 9 0 15 -9 15 -25z m0 -65 c0 -11 -7 -20 -15 -20
-8 0 -15 9 -15 20 0 11 7 20 15 20 8 0 15 -9 15 -20z"/>
<path d="M14460 5318 c0 -72 0 -1186 0 -1230 l0 -48 650 0 650 0 0 655 0 655
-650 0 -650 0 0 -32z m1228 -7 c19 -1 22 -6 22 -41 l0 -40 -265 0 -265 0 0 40
0 39 88 3 c70 2 309 2 420 -1z m-522 -438 c7 -2 16 -26 19 -51 4 -26 12 -71
19 -101 11 -50 10 -59 -14 -130 -22 -62 -29 -110 -21 -150 1 -3 7 4 15 14 13
18 14 18 20 -1 4 -12 29 -31 58 -45 100 -46 116 -68 175 -244 11 -33 23 -68
28 -77 7 -17 -14 -18 -360 -18 l-367 0 5 23 c17 67 60 173 73 180 9 5 13 16 9
27 -9 28 42 80 111 110 58 27 62 31 69 69 4 22 4 49 1 59 -5 14 10 37 55 86
34 37 64 65 66 62 3 -2 18 0 34 6 40 14 28 23 -24 20 -37 -2 -48 -9 -94 -59
-29 -32 -56 -54 -60 -49 -12 11 -15 238 -4 255 17 26 133 35 187 14z m66 -155
c-7 -7 -12 -8 -12 -2 0 14 12 26 19 19 2 -3 -1 -11 -7 -17z m-42 -208 c0 -5
-4 -10 -10 -10 -5 0 -10 5 -10 10 0 6 5 10 10 10 6 0 10 -4 10 -10z"/>
<path d="M15200 5269 c0 -18 5 -20 47 -17 36 2 49 7 51 21 3 14 -4 17 -47 17
-45 0 -51 -3 -51 -21z"/>
<path d="M15420 5275 c0 -8 4 -15 10 -15 5 0 7 7 4 15 -4 8 -8 15 -10 15 -2 0
-4 -7 -4 -15z"/>
<path d="M15330 5270 c0 -5 7 -7 15 -4 8 4 15 8 15 10 0 2 -7 4 -15 4 -8 0
-15 -4 -15 -10z"/>
<path d="M15535 5270 c-3 -5 -1 -10 4 -10 6 0 11 5 11 10 0 6 -2 10 -4 10 -3
0 -8 -4 -11 -10z"/>
<path d="M15005 4699 c-11 -17 -2 -18 19 -3 17 12 17 14 4 14 -9 0 -20 -5 -23
-11z"/>
<path d="M15110 4490 c6 -11 13 -20 15 -20 3 0 5 9 5 20 0 11 -7 20 -15 20
-13 0 -14 -4 -5 -20z"/>
<path d="M15039 4421 c12 -16 21 -40 21 -53 0 -12 9 -38 20 -56 11 -18 20 -49
21 -70 l0 -37 16 35 c8 19 25 54 36 77 12 23 18 45 14 49 -4 4 -15 -12 -25
-34 -18 -40 -32 -46 -32 -14 0 7 -9 25 -20 39 -11 14 -20 32 -20 39 0 14 -34
54 -46 54 -3 0 4 -13 15 -29z"/>
<path d="M9897 5274 c-4 -4 -7 -103 -7 -221 l0 -213 225 0 225 0 -3 218 -2
217 -216 3 c-118 1 -218 -1 -222 -4z"/>
<path d="M8067 5243 c-4 -3 -7 -136 -7 -295 l0 -288 23 -2 c12 0 32 0 45 1 12
1 22 -3 22 -9 0 -5 -9 -10 -20 -10 -11 0 -20 -4 -20 -10 0 -5 7 -10 16 -10 9
0 18 -9 21 -20 3 -11 14 -20 24 -20 14 0 19 -7 19 -25 0 -18 5 -25 20 -25 15
0 20 -7 20 -25 0 -18 5 -25 19 -25 10 0 21 -9 24 -20 3 -12 14 -20 25 -20 14
0 22 -8 24 -22 2 -14 12 -24 28 -28 16 -4 26 -14 28 -28 2 -16 10 -22 28 -22
19 0 24 -5 24 -24 0 -15 7 -26 20 -29 12 -3 20 -14 20 -26 0 -14 6 -21 19 -21
13 0 21 -8 23 -22 2 -15 11 -24 26 -26 16 -3 22 -10 22 -28 0 -19 5 -24 24
-24 19 0 25 -6 28 -27 2 -22 9 -29 31 -31 21 -3 27 -9 27 -28 l0 -24 290 0
290 1 0 295 0 294 -25 0 c-20 0 -25 5 -25 25 0 20 -6 27 -30 32 -23 4 -30 11
-30 29 0 17 -6 24 -20 24 -15 0 -20 7 -20 24 0 18 -6 25 -22 28 -17 2 -24 11
-26 31 -2 19 -9 27 -23 27 -12 0 -19 7 -19 20 0 15 -7 20 -25 20 -20 0 -25 5
-25 25 0 20 -5 25 -25 25 -20 0 -25 5 -25 25 0 20 -5 25 -25 25 -20 0 -25 5
-25 24 0 18 -6 25 -22 28 -15 2 -24 11 -26 26 -2 14 -10 22 -23 22 -12 0 -19
7 -19 20 0 13 -7 20 -20 20 -13 0 -20 7 -20 20 0 13 -7 20 -20 20 -13 0 -20 7
-20 19 0 13 -8 21 -22 23 -15 2 -24 11 -26 26 l-3 22 -283 0 c-155 0 -286 -3
-289 -7z m561 -25 c-4 -10 -68 -14 -267 -16 l-262 -2 2 -256 c1 -230 -2 -277
-15 -263 -7 7 -8 50 -7 302 l1 247 276 0 c216 0 275 -3 272 -12z m-6 -43 c2
-6 -82 -11 -234 -13 l-238 -2 2 -228 3 -227 2 218 3 217 235 0 c150 0 235 -4
235 -10 0 -6 -80 -10 -220 -10 l-220 0 0 -220 c0 -189 -2 -220 -15 -220 -8 0
-15 6 -16 13 0 10 -2 10 -6 0 -2 -7 -11 -13 -19 -13 -12 0 -14 41 -14 248 0
137 3 251 6 255 11 11 494 3 496 -8z m45 -11 c-9 -9 -28 6 -21 18 4 6 10 6 17
-1 6 -6 8 -13 4 -17z m3 -34 c0 -5 -7 -10 -15 -10 -8 0 -15 5 -15 10 0 6 7 10
15 10 8 0 15 -4 15 -10z m40 0 c0 -5 -4 -10 -10 -10 -5 0 -10 5 -10 10 0 6 5
10 10 10 6 0 10 -4 10 -10z m-85 -40 c4 -6 -66 -11 -192 -12 l-198 -3 -3 -198
c-2 -134 -6 -197 -13 -195 -6 2 -10 7 -10 11 1 4 1 97 1 207 l0 200 204 0
c123 0 207 -4 211 -10z m45 0 c0 -5 -7 -10 -16 -10 -8 0 -12 5 -9 10 3 6 10
10 16 10 5 0 9 -4 9 -10z m40 0 c0 -5 -4 -10 -10 -10 -5 0 -10 5 -10 10 0 6 5
10 10 10 6 0 10 -4 10 -10z m45 0 c3 -5 -1 -10 -9 -10 -9 0 -16 5 -16 10 0 6
4 10 9 10 6 0 13 -4 16 -10z m-135 -45 c0 -6 -67 -11 -176 -13 l-175 -2 1 -28
c6 -92 -1 -332 -10 -327 -6 4 -10 80 -10 196 l0 189 185 -2 c115 -2 185 -7
185 -13z m50 0 c0 -8 -4 -15 -9 -15 -13 0 -22 16 -14 24 11 11 23 6 23 -9z
m40 0 c0 -8 -4 -15 -10 -15 -5 0 -10 7 -10 15 0 8 5 15 10 15 6 0 10 -7 10
-15z m42 0 c0 -5 -5 -11 -11 -13 -6 -2 -11 4 -11 13 0 9 5 15 11 13 6 -2 11
-8 11 -13z m46 4 c-2 -6 -8 -10 -13 -10 -5 0 -11 4 -13 10 -2 6 4 11 13 11 9
0 15 -5 13 -11z m-170 -44 c2 -2 1 -8 -3 -14 -4 -7 -61 -11 -156 -11 l-149 0
0 -150 c0 -127 -2 -150 -15 -150 -13 0 -15 25 -15 163 0 90 2 166 4 168 5 5
329 -1 334 -6z m212 -11 c0 -16 -16 -19 -25 -4 -8 13 4 32 16 25 5 -4 9 -13 9
-21z m-170 0 c0 -17 -22 -14 -28 4 -2 7 3 12 12 12 9 0 16 -7 16 -16z m40 1
c0 -8 -4 -15 -10 -15 -5 0 -10 7 -10 15 0 8 5 15 10 15 6 0 10 -7 10 -15z m48
3 c-6 -18 -28 -21 -28 -4 0 9 7 16 16 16 9 0 14 -5 12 -12z m42 -4 c0 -9 -5
-14 -12 -12 -18 6 -21 28 -4 28 9 0 16 -7 16 -16z m-172 -46 c-3 -9 -40 -14
-126 -16 l-122 -3 0 -124 c0 -118 -1 -125 -20 -125 -19 0 -20 7 -20 140 l0
140 146 0 c112 0 145 -3 142 -12z m42 -4 c0 -17 -22 -14 -28 4 -2 7 3 12 12
12 9 0 16 -7 16 -16z m40 1 c0 -8 -4 -15 -10 -15 -5 0 -10 7 -10 15 0 8 5 15
10 15 6 0 10 -7 10 -15z m48 3 c-6 -18 -28 -21 -28 -4 0 9 7 16 16 16 9 0 14
-5 12 -12z m40 1 c-2 -6 -8 -10 -13 -10 -5 0 -11 4 -13 10 -2 6 4 11 13 11 9
0 15 -5 13 -11z m42 -5 c0 -17 -22 -14 -28 4 -2 7 3 12 12 12 9 0 16 -7 16
-16z m50 1 c0 -8 -7 -15 -15 -15 -8 0 -15 7 -15 15 0 8 7 15 15 15 8 0 15 -7
15 -15z m-261 -40 c1 -2 0 -8 -4 -14 -4 -7 -45 -11 -101 -11 l-94 0 0 -100 c0
-93 -1 -100 -20 -100 -19 0 -20 7 -20 114 0 111 1 115 23 118 27 4 211 -2 216
-7z m261 -11 c0 -8 -7 -14 -15 -14 -15 0 -21 21 -9 33 10 9 24 -2 24 -19z
m-220 0 c0 -17 -22 -14 -28 4 -2 7 3 12 12 12 9 0 16 -7 16 -16z m40 1 c0 -8
-4 -15 -10 -15 -5 0 -10 7 -10 15 0 8 5 15 10 15 6 0 10 -7 10 -15z m48 3 c-6
-18 -28 -21 -28 -4 0 9 7 16 16 16 9 0 14 -5 12 -12z m42 -4 c0 -17 -22 -14
-28 4 -2 7 3 12 12 12 9 0 16 -7 16 -16z m40 1 c0 -8 -4 -15 -9 -15 -13 0 -22
16 -14 24 11 11 23 6 23 -9z m100 0 c0 -8 -7 -15 -15 -15 -8 0 -15 7 -15 15 0
8 7 15 15 15 8 0 15 -7 15 -15z m-313 -47 c-3 -9 -28 -13 -78 -13 l-74 0 -3
-77 c-2 -60 -6 -78 -17 -78 -12 0 -15 18 -15 90 l0 90 96 0 c72 0 95 -3 91
-12z m43 2 c0 -5 -7 -10 -15 -10 -8 0 -15 5 -15 10 0 6 7 10 15 10 8 0 15 -4
15 -10z m40 -6 c0 -8 -4 -12 -10 -9 -5 3 -10 10 -10 16 0 5 5 9 10 9 6 0 10
-7 10 -16z m48 5 c-2 -6 -8 -10 -13 -10 -5 0 -11 4 -13 10 -2 6 4 11 13 11 9
0 15 -5 13 -11z m40 0 c-2 -6 -8 -10 -13 -10 -5 0 -11 4 -13 10 -2 6 4 11 13
11 9 0 15 -5 13 -11z m42 1 c0 -5 -7 -10 -15 -10 -8 0 -15 5 -15 10 0 6 7 10
15 10 8 0 15 -4 15 -10z m48 -2 c-6 -18 -28 -21 -28 -4 0 9 7 16 16 16 9 0 14
-5 12 -12z m50 0 c-6 -18 -28 -21 -28 -4 0 9 7 16 16 16 9 0 14 -5 12 -12z
m50 1 c-2 -6 -8 -10 -13 -10 -5 0 -11 4 -13 10 -2 6 4 11 13 11 9 0 15 -5 13
-11z m-363 -49 c0 -11 -14 -16 -57 -18 l-58 -3 0 -49 c0 -28 -4 -50 -10 -50
-6 0 -10 30 -10 70 l0 71 68 -3 c52 -2 67 -6 67 -18z m45 6 c0 -8 -4 -17 -9
-21 -12 -7 -24 12 -16 25 9 15 25 12 25 -4z m40 -6 c0 -11 -4 -20 -10 -20 -5
0 -10 9 -10 20 0 11 5 20 10 20 6 0 10 -9 10 -20z m45 2 c0 -18 -20 -15 -23 4
-3 10 1 15 10 12 7 -3 13 -10 13 -16z m40 -12 c-5 -8 -11 -8 -17 -2 -6 6 -7
16 -3 22 5 8 11 8 17 2 6 -6 7 -16 3 -22z m45 16 c0 -8 -4 -17 -9 -21 -12 -7
-24 12 -16 25 9 15 25 12 25 -4z m50 -6 c0 -11 -7 -20 -15 -20 -8 0 -15 9 -15
20 0 11 7 20 15 20 8 0 15 -9 15 -20z m48 3 c-5 -25 -28 -28 -28 -4 0 12 6 21
16 21 9 0 14 -7 12 -17z m52 -4 c0 -24 -23 -21 -28 4 -2 10 3 17 12 17 10 0
16 -9 16 -21z m40 0 c0 -11 -4 -17 -10 -14 -5 3 -10 13 -10 21 0 8 5 14 10 14
6 0 10 -9 10 -21z m-405 -49 c0 -10 -12 -16 -32 -18 -27 -3 -33 -7 -33 -28 0
-15 -6 -24 -15 -24 -11 0 -15 12 -15 46 l0 45 48 -3 c34 -2 47 -7 47 -18z m45
0 c0 -21 -15 -27 -25 -10 -7 12 2 30 16 30 5 0 9 -9 9 -20z m40 0 c0 -11 -4
-20 -10 -20 -5 0 -10 9 -10 20 0 11 5 20 10 20 6 0 10 -9 10 -20z m45 0 c0 -7
-6 -15 -12 -17 -8 -3 -13 4 -13 17 0 13 5 20 13 18 6 -3 12 -11 12 -18z m40
-10 c-5 -8 -11 -8 -17 -2 -6 6 -7 16 -3 22 5 8 11 8 17 2 6 -6 7 -16 3 -22z
m45 10 c0 -21 -15 -27 -25 -10 -7 12 2 30 16 30 5 0 9 -9 9 -20z m50 0 c0 -11
-7 -20 -15 -20 -8 0 -15 9 -15 20 0 11 7 20 15 20 8 0 15 -9 15 -20z m50 0 c0
-11 -7 -20 -15 -20 -8 0 -15 9 -15 20 0 11 7 20 15 20 8 0 15 -9 15 -20z m50
0 c0 -11 -7 -20 -15 -20 -8 0 -15 9 -15 20 0 11 7 20 15 20 8 0 15 -9 15 -20z
m40 0 c0 -11 -4 -20 -10 -20 -5 0 -10 9 -10 20 0 11 5 20 10 20 6 0 10 -9 10
-20z m50 0 c0 -21 -15 -27 -25 -10 -7 12 2 30 16 30 5 0 9 -9 9 -20z m-452
-52 c3 -14 -3 -18 -26 -18 -25 0 -29 3 -25 21 7 25 46 22 51 -3z m78 -15 c-11
-11 -19 6 -11 24 8 17 8 17 12 0 3 -10 2 -21 -1 -24z m234 11 c0 -8 -7 -14
-15 -14 -15 0 -21 21 -9 33 10 9 24 -2 24 -19z m180 6 c0 -11 -4 -20 -10 -20
-5 0 -10 9 -10 20 0 11 5 20 10 20 6 0 10 -9 10 -20z m-450 -5 c0 -8 -7 -15
-15 -15 -8 0 -15 7 -15 15 0 8 7 15 15 15 8 0 15 -7 15 -15z m90 0 c0 -8 -7
-15 -15 -15 -8 0 -15 7 -15 15 0 8 7 15 15 15 8 0 15 -7 15 -15z m40 0 c0 -8
-7 -15 -15 -15 -8 0 -15 7 -15 15 0 8 7 15 15 15 8 0 15 -7 15 -15z m40 0 c0
-8 -7 -15 -15 -15 -16 0 -20 12 -8 23 11 12 23 8 23 -8z m50 0 c0 -8 -7 -15
-15 -15 -8 0 -15 7 -15 15 0 8 7 15 15 15 8 0 15 -7 15 -15z m100 0 c0 -8 -7
-15 -15 -15 -8 0 -15 7 -15 15 0 8 7 15 15 15 8 0 15 -7 15 -15z m40 0 c0 -8
-4 -15 -10 -15 -5 0 -10 7 -10 15 0 8 5 15 10 15 6 0 10 -7 10 -15z m50 0 c0
-8 -7 -15 -15 -15 -8 0 -15 7 -15 15 0 8 7 15 15 15 8 0 15 -7 15 -15z m92
-67 c-12 -12 -32 -2 -32 17 0 18 34 24 38 7 2 -8 -1 -19 -6 -24z m-982 3 c0
-38 -18 -49 -29 -19 -10 28 -4 48 15 48 9 0 14 -11 14 -29z m40 19 c0 -5 -4
-10 -10 -10 -5 0 -10 5 -10 10 0 6 5 10 10 10 6 0 10 -4 10 -10z m40 0 c0 -5
-4 -10 -10 -10 -5 0 -10 5 -10 10 0 6 5 10 10 10 6 0 10 -4 10 -10z m50 0 c0
-5 -7 -10 -15 -10 -8 0 -15 5 -15 10 0 6 7 10 15 10 8 0 15 -4 15 -10z m60 0
c0 -5 -9 -10 -21 -10 -11 0 -17 5 -14 10 3 6 13 10 21 10 8 0 14 -4 14 -10z
m48 -2 c-6 -18 -25 -20 -31 -3 -5 10 0 15 14 15 12 0 19 -5 17 -12z m42 2 c0
-5 -7 -10 -15 -10 -8 0 -15 5 -15 10 0 6 7 10 15 10 8 0 15 -4 15 -10z m40 0
c0 -5 -4 -10 -10 -10 -5 0 -10 5 -10 10 0 6 5 10 10 10 6 0 10 -4 10 -10z m50
0 c0 -5 -7 -10 -15 -10 -8 0 -15 5 -15 10 0 6 7 10 15 10 8 0 15 -4 15 -10z
m50 0 c0 -5 -6 -10 -14 -10 -8 0 -18 5 -21 10 -3 6 3 10 14 10 12 0 21 -4 21
-10z m60 0 c0 -5 -9 -10 -20 -10 -11 0 -20 5 -20 10 0 6 9 10 20 10 11 0 20
-4 20 -10z m40 -10 c0 -11 -4 -20 -10 -20 -5 0 -10 9 -10 20 0 11 5 20 10 20
6 0 10 -9 10 -20z m48 3 c-5 -25 -28 -28 -28 -4 0 12 6 21 16 21 9 0 14 -7 12
-17z m40 0 c-4 -22 -22 -20 -26 1 -2 10 3 16 13 16 10 0 15 -7 13 -17z m42 -3
c0 -11 -4 -20 -9 -20 -11 0 -22 26 -14 34 12 12 23 5 23 -14z m50 0 c0 -11 -7
-20 -15 -20 -8 0 -15 9 -15 20 0 11 7 20 15 20 8 0 15 -9 15 -20z m50 0 c0
-11 -7 -20 -15 -20 -8 0 -15 9 -15 20 0 11 7 20 15 20 8 0 15 -9 15 -20z m50
0 c0 -11 -7 -20 -15 -20 -8 0 -15 9 -15 20 0 11 7 20 15 20 8 0 15 -9 15 -20z
m40 0 c0 -11 -4 -20 -10 -20 -5 0 -10 9 -10 20 0 11 5 20 10 20 6 0 10 -9 10
-20z m50 -1 c0 -24 -23 -21 -28 4 -2 10 3 17 12 17 10 0 16 -9 16 -21z m40 1
c0 -11 -4 -20 -10 -20 -5 0 -10 9 -10 20 0 11 5 20 10 20 6 0 10 -9 10 -20z
m-890 -29 c0 -6 -4 -13 -10 -16 -5 -3 -10 1 -10 9 0 9 5 16 10 16 6 0 10 -4
10 -9z m40 -7 c0 -8 -4 -12 -10 -9 -5 3 -10 10 -10 16 0 5 5 9 10 9 6 0 10 -7
10 -16z m50 6 c0 -5 -4 -10 -10 -10 -5 0 -10 5 -10 10 0 6 5 10 10 10 6 0 10
-4 10 -10z m51 -5 c-1 -15 -24 -12 -29 3 -3 9 2 13 12 10 10 -1 17 -7 17 -13z
m54 6 c7 -12 -12 -24 -25 -16 -11 7 -4 25 10 25 5 0 11 -4 15 -9z m39 -12 c-3
-5 -10 -7 -15 -3 -5 3 -7 10 -3 15 3 5 10 7 15 3 5 -3 7 -10 3 -15z m46 5 c0
-8 -4 -12 -10 -9 -5 3 -10 10 -10 16 0 5 5 9 10 9 6 0 10 -7 10 -16z m50 6 c0
-5 -7 -10 -15 -10 -8 0 -15 5 -15 10 0 6 7 10 15 10 8 0 15 -4 15 -10z m48
-25 c0 -19 -5 -35 -11 -35 -7 0 -7 -4 1 -12 17 -17 15 -28 -5 -28 -15 0 -18 9
-16 52 2 64 0 58 17 58 9 0 14 -12 14 -35z m53 20 c-1 -15 -24 -12 -29 3 -3 9
2 13 12 10 10 -1 17 -7 17 -13z m-431 -40 c0 -8 -4 -15 -10 -15 -5 0 -10 7
-10 15 0 8 5 15 10 15 6 0 10 -7 10 -15z m40 0 c0 -8 -4 -15 -10 -15 -5 0 -10
7 -10 15 0 8 5 15 10 15 6 0 10 -7 10 -15z m50 0 c0 -8 -7 -15 -15 -15 -16 0
-20 12 -8 23 11 12 23 8 23 -8z m53 0 c1 -5 -6 -11 -15 -13 -11 -2 -18 3 -18
13 0 17 30 18 33 0z m52 6 c7 -12 -12 -24 -25 -16 -11 7 -4 25 10 25 5 0 11
-4 15 -9z m39 -12 c-3 -5 -10 -7 -15 -3 -5 3 -7 10 -3 15 3 5 10 7 15 3 5 -3
7 -10 3 -15z m42 -6 c-10 -10 -19 5 -10 18 6 11 8 11 12 0 2 -7 1 -15 -2 -18z
m46 12 c0 -5 -5 -11 -11 -13 -6 -2 -11 4 -11 13 0 9 5 15 11 13 6 -2 11 -8 11
-13z m112 -6 c-7 -11 -34 -12 -34 -1 0 14 11 21 26 15 8 -3 11 -9 8 -14z m73
-15 c-3 -3 -12 -4 -19 -1 -8 3 -5 6 6 6 11 1 17 -2 13 -5z m-177 -25 c0 -5 -7
-9 -15 -9 -15 0 -20 12 -9 23 8 8 24 -1 24 -14z m152 2 c4 -3 -13 -7 -37 -8
-42 -1 -54 5 -39 20 7 7 65 -2 76 -12z m-442 -1 c0 -5 -4 -10 -10 -10 -5 0
-10 5 -10 10 0 6 5 10 10 10 6 0 10 -4 10 -10z m50 0 c0 -5 -7 -10 -15 -10 -8
0 -15 5 -15 10 0 6 7 10 15 10 8 0 15 -4 15 -10z m60 0 c0 -5 -9 -10 -20 -10
-11 0 -20 5 -20 10 0 6 9 10 20 10 11 0 20 -4 20 -10z m50 0 c0 -5 -9 -10 -20
-10 -11 0 -20 5 -20 10 0 6 9 10 20 10 11 0 20 -4 20 -10z m40 0 c0 -5 -7 -10
-15 -10 -8 0 -15 5 -15 10 0 6 7 10 15 10 8 0 15 -4 15 -10z m40 0 c0 -5 -4
-10 -10 -10 -5 0 -10 5 -10 10 0 6 5 10 10 10 6 0 10 -4 10 -10z m330 -30 c0
-5 -4 -10 -10 -10 -5 0 -10 5 -10 10 0 6 5 10 10 10 6 0 10 -4 10 -10z m84 -5
c3 -8 1 -15 -4 -15 -6 0 -10 7 -10 15 0 8 2 15 4 15 2 0 6 -7 10 -15z m-604
-15 c0 -5 -7 -10 -15 -10 -8 0 -15 5 -15 10 0 6 7 10 15 10 8 0 15 -4 15 -10z
m60 0 c0 -5 -9 -10 -20 -10 -11 0 -20 5 -20 10 0 6 9 10 20 10 11 0 20 -4 20
-10z m50 0 c0 -5 -9 -10 -20 -10 -11 0 -20 5 -20 10 0 6 9 10 20 10 11 0 20
-4 20 -10z m40 0 c0 -5 -7 -10 -15 -10 -8 0 -15 5 -15 10 0 6 7 10 15 10 8 0
15 -4 15 -10z m40 0 c0 -5 -4 -10 -10 -10 -5 0 -10 5 -10 10 0 6 5 10 10 10 6
0 10 -4 10 -10z m50 0 c0 -5 -7 -10 -15 -10 -8 0 -15 5 -15 10 0 6 7 10 15 10
8 0 15 -4 15 -10z m50 0 c0 -5 -6 -10 -14 -10 -8 0 -18 5 -21 10 -3 6 3 10 14
10 12 0 21 -4 21 -10z m55 0 c-3 -5 -13 -10 -21 -10 -8 0 -14 5 -14 10 0 6 9
10 21 10 11 0 17 -4 14 -10z m-287 -47 c2 -8 -5 -13 -17 -13 -12 0 -21 6 -21
16 0 18 31 15 38 -3z m50 -1 c2 -7 -6 -12 -17 -12 -21 0 -27 11 -14 24 9 9 26
2 31 -12z m42 3 c0 -8 -7 -15 -15 -15 -16 0 -20 12 -8 23 11 12 23 8 23 -8z
m40 0 c0 -8 -4 -15 -10 -15 -5 0 -10 7 -10 15 0 8 5 15 10 15 6 0 10 -7 10
-15z m50 0 c0 -8 -7 -15 -15 -15 -8 0 -15 7 -15 15 0 8 7 15 15 15 8 0 15 -7
15 -15z m50 0 c0 -8 -6 -15 -14 -15 -17 0 -28 14 -19 24 12 12 33 6 33 -9z
m58 -2 c2 -8 -5 -13 -17 -13 -12 0 -21 6 -21 16 0 18 31 15 38 -3z m425 -28
c-3 -9 -8 -14 -10 -11 -3 3 -2 9 2 15 9 16 15 13 8 -4z m-665 -23 c2 -7 -6
-12 -17 -12 -21 0 -27 11 -14 24 9 9 26 2 31 -12z m42 3 c0 -8 -7 -15 -15 -15
-16 0 -20 12 -8 23 11 12 23 8 23 -8z m40 0 c0 -8 -4 -15 -10 -15 -5 0 -10 7
-10 15 0 8 5 15 10 15 6 0 10 -7 10 -15z m50 0 c0 -8 -7 -15 -15 -15 -8 0 -15
7 -15 15 0 8 7 15 15 15 8 0 15 -7 15 -15z m50 0 c0 -8 -9 -15 -20 -15 -13 0
-18 5 -14 15 4 8 12 15 20 15 8 0 14 -7 14 -15z m58 -2 c2 -8 -5 -13 -17 -13
-12 0 -21 6 -21 16 0 18 31 15 38 -3z m405 -38 c-3 -9 -8 -14 -10 -11 -3 3 -2
9 2 15 9 16 15 13 8 -4z m-603 -10 c0 -8 -7 -15 -15 -15 -8 0 -15 7 -15 15 0
8 7 15 15 15 8 0 15 -7 15 -15z m40 0 c0 -8 -4 -15 -10 -15 -5 0 -10 7 -10 15
0 8 5 15 10 15 6 0 10 -7 10 -15z m50 1 c0 -8 -7 -16 -15 -20 -10 -4 -15 1
-15 14 0 11 7 20 15 20 8 0 15 -6 15 -14z m50 -1 c0 -8 -7 -15 -15 -15 -8 0
-15 7 -15 15 0 8 7 15 15 15 8 0 15 -7 15 -15z m55 5 c3 -5 4 -14 0 -20 -8
-13 -35 -1 -35 16 0 16 26 19 35 4z m-155 -55 c0 -8 -4 -15 -10 -15 -5 0 -10
7 -10 15 0 8 5 15 10 15 6 0 10 -7 10 -15z m48 -3 c2 -7 -3 -12 -12 -12 -9 0
-16 7 -16 16 0 17 22 14 28 -4z m52 3 c0 -8 -7 -15 -15 -15 -8 0 -15 7 -15 15
0 8 7 15 15 15 8 0 15 -7 15 -15z m55 5 c3 -6 -1 -13 -10 -16 -19 -8 -30 0
-20 15 8 14 22 14 30 1z m423 -15 c-3 -3 -9 2 -12 12 -6 14 -5 15 5 6 7 -7 10
-15 7 -18z m-528 -40 c0 -8 -7 -15 -15 -15 -8 0 -15 7 -15 15 0 8 7 15 15 15
8 0 15 -7 15 -15z m50 -1 c0 -9 -7 -14 -17 -12 -25 5 -28 28 -4 28 12 0 21 -6
21 -16z m58 4 c-7 -19 -38 -22 -38 -4 0 10 9 16 21 16 12 0 19 -5 17 -12z
m-58 -53 c0 -8 -9 -15 -20 -15 -20 0 -26 11 -13 23 12 13 33 7 33 -8z m58 -2
c2 -8 -5 -13 -17 -13 -12 0 -21 6 -21 16 0 18 31 15 38 -3z m-3 -53 c0 -8 -8
-16 -17 -18 -13 -2 -18 3 -18 18 0 15 5 20 18 18 9 -2 17 -10 17 -18z"/>
<path d="M11800 5079 c0 -22 -22 -120 -81 -363 -38 -156 -46 -201 -29 -161 16
38 11 -9 -20 -158 -16 -80 -27 -163 -25 -184 4 -30 3 -33 -4 -13 -6 19 -8 12
-7 -30 0 -30 -3 -80 -7 -110 -4 -30 4 -1 18 65 14 66 26 145 27 176 2 31 6 55
9 53 3 -1 11 38 18 89 14 96 108 609 117 640 3 9 1 17 -5 17 -6 0 -11 -9 -11
-21z m-89 -475 c-5 -16 -10 -21 -10 -12 -1 18 10 51 15 45 2 -1 -1 -16 -5 -33z
m-54 -366 c-3 -7 -5 -2 -5 12 0 14 2 19 5 13 2 -7 2 -19 0 -25z"/>
<path d="M1148 5039 c4 -26 6 -29 14 -15 10 18 4 46 -10 46 -5 0 -6 -14 -4
-31z"/>
<path d="M1115 5000 c-3 -5 -23 -10 -43 -10 -30 -1 -34 -3 -20 -11 21 -12 80
1 86 19 4 14 -14 16 -23 2z"/>
<path d="M900 4980 c0 -12 8 -12 35 0 18 8 17 9 -7 9 -16 1 -28 -3 -28 -9z"/>
<path d="M6300 4925 c0 -14 5 -25 10 -25 6 0 10 11 10 25 0 14 -4 25 -10 25
-5 0 -10 -11 -10 -25z"/>
<path d="M6360 4925 c0 -14 5 -25 10 -25 6 0 10 11 10 25 0 14 -4 25 -10 25
-5 0 -10 -11 -10 -25z"/>
<path d="M11601 4874 c0 -11 3 -14 6 -6 3 7 2 16 -1 19 -3 4 -6 -2 -5 -13z"/>
<path d="M1112 4776 c0 -40 12 -48 22 -14 3 13 0 29 -8 37 -12 11 -14 8 -14
-23z"/>
<path d="M1040 4789 c0 -5 5 -7 10 -4 6 3 10 8 10 11 0 2 -4 4 -10 4 -5 0 -10
-5 -10 -11z"/>
<path d="M9890 4575 l0 -225 220 0 220 0 0 225 0 225 -220 0 -220 0 0 -225z"/>
<path d="M954 4729 c14 -17 26 -41 26 -53 0 -12 11 -33 25 -46 20 -18 25 -33
25 -69 l0 -46 20 30 c21 31 27 71 10 60 -5 -3 -10 1 -10 9 0 8 -13 31 -30 49
-16 19 -30 40 -30 47 0 12 -39 49 -53 50 -5 0 3 -14 17 -31z"/>
<path d="M1096 4661 c-10 -11 -16 -26 -14 -33 3 -8 11 -2 23 15 21 33 15 45
-9 18z"/>
<path d="M11800 4590 c0 -18 -8 -51 -55 -225 -7 -27 -20 -71 -28 -97 -8 -26
-11 -48 -6 -50 5 -2 -5 -62 -22 -133 -18 -77 -32 -163 -34 -210 l-2 -80 13 60
c7 33 11 76 8 95 -3 29 -2 31 6 15 8 -16 9 -12 4 18 -4 30 -2 37 7 31 9 -5 10
-2 6 10 -4 9 -3 24 2 34 5 9 14 42 20 72 16 87 90 441 97 462 3 10 1 18 -5 18
-6 0 -11 -9 -11 -20z m-133 -682 c-3 -7 -5 -2 -5 12 0 14 2 19 5 13 2 -7 2
-19 0 -25z"/>
<path d="M11657 4453 c-9 -42 -15 -78 -13 -81 2 -2 12 31 21 73 10 42 15 78
13 80 -3 3 -12 -30 -21 -72z"/>
<path d="M9321 4484 c-8 -9 -15 -40 -16 -70 -1 -47 1 -54 17 -54 15 0 17 5 12
25 -3 14 -1 31 5 39 9 11 9 16 0 21 -8 6 -7 10 2 16 26 16 31 9 27 -46 -3 -52
-2 -55 21 -55 17 0 22 4 17 16 -3 9 -6 41 -7 72 0 31 -3 51 -6 45 -6 -15 -43
-17 -43 -3 0 15 -13 12 -29 -6z"/>
<path d="M11531 4454 c0 -11 3 -14 6 -6 3 7 2 16 -1 19 -3 4 -6 -2 -5 -13z"/>
<path d="M9516 4452 c-2 -4 -2 -27 1 -50 5 -36 9 -42 29 -42 13 0 24 5 24 10
0 6 -7 10 -15 10 -20 0 -19 36 2 44 14 6 14 8 -3 21 -22 17 -31 18 -38 7z"/>
<path d="M9586 4452 c-2 -4 -2 -27 1 -50 5 -36 9 -42 29 -42 13 0 24 5 24 10
0 6 -7 10 -15 10 -20 0 -19 36 2 44 14 6 14 8 -3 21 -22 17 -31 18 -38 7z"/>
<path d="M9420 4430 c0 -5 12 -10 28 -10 l27 0 -25 -13 c-14 -7 -26 -20 -28
-30 -3 -14 4 -17 38 -17 34 0 41 3 36 16 -3 9 -6 27 -6 40 0 21 -5 24 -35 24
-19 0 -35 -4 -35 -10z m45 -40 c3 -5 -1 -10 -10 -10 -9 0 -13 5 -10 10 3 6 8
10 10 10 2 0 7 -4 10 -10z"/>
<path d="M9654 4415 c-4 -15 -1 -31 6 -40 14 -17 60 -21 60 -5 0 6 -9 10 -20
10 -11 0 -20 5 -20 10 0 6 12 10 26 10 39 0 28 34 -13 38 -28 3 -33 -1 -39
-23z"/>
<path d="M9745 4400 c-1 -34 2 -40 20 -40 18 0 21 5 17 30 -3 24 -1 30 13 30
14 0 16 -6 12 -30 -6 -26 -3 -30 14 -30 15 0 19 5 15 16 -3 9 -6 27 -6 40 0
22 -4 24 -42 24 l-43 0 0 -40z"/>
<path d="M11572 4390 c0 -14 2 -19 5 -12 2 6 2 18 0 25 -3 6 -5 1 -5 -13z"/>
<path d="M11512 4335 c0 -16 2 -22 5 -12 2 9 2 23 0 30 -3 6 -5 -1 -5 -18z"/>
<path d="M11542 4340 c0 -14 2 -19 5 -12 2 6 2 18 0 25 -3 6 -5 1 -5 -13z"/>
<path d="M11562 4330 c0 -14 2 -19 5 -12 2 6 2 18 0 25 -3 6 -5 1 -5 -13z"/>
<path d="M9395 4270 c0 -53 2 -60 20 -60 18 0 20 5 17 60 -3 48 -7 60 -20 60
-14 0 -17 -11 -17 -60z"/>
<path d="M9890 4101 c0 -136 4 -221 10 -223 5 -1 104 -2 220 0 l210 3 0 219 0
220 -220 0 -220 0 0 -219z"/>
<path d="M11502 4275 c0 -16 2 -22 5 -12 2 9 2 23 0 30 -3 6 -5 -1 -5 -18z"/>
<path d="M9450 4281 c0 -5 12 -11 28 -13 l27 -4 -27 -12 c-44 -18 -36 -42 13
-42 33 0 40 3 35 16 -3 9 -6 27 -6 40 0 21 -5 24 -35 24 -19 0 -35 -4 -35 -9z
m47 -47 c-3 -3 -12 -4 -19 -1 -8 3 -5 6 6 6 11 1 17 -2 13 -5z"/>
<path d="M9546 4254 c8 -19 12 -44 9 -54 -3 -10 -2 -21 3 -24 4 -3 20 20 35
50 32 64 32 64 12 64 -8 0 -14 -3 -14 -7 1 -5 1 -16 0 -26 -1 -24 -21 -11 -21
14 0 12 -7 19 -19 19 -19 0 -19 -2 -5 -36z"/>
<path d="M9635 4270 c-11 -35 3 -60 36 -60 34 0 40 20 7 21 -23 0 -22 0 2 10
31 13 32 13 24 33 -9 24 -61 21 -69 -4z"/>
<path d="M9725 4250 c0 -34 3 -40 21 -40 17 0 20 5 16 30 -3 18 0 30 7 30 6 0
11 5 11 10 0 6 -12 10 -28 10 -25 0 -27 -3 -27 -40z"/>
<path d="M11496 4046 c-42 -263 -45 -338 -6 -131 13 69 24 124 25 123 1 -2 5
-21 8 -43 4 -22 3 -34 -2 -27 -4 7 -19 -69 -35 -182 -15 -107 -32 -212 -38
-233 -5 -21 -9 -46 -9 -55 0 -10 -4 -20 -9 -23 -5 -3 -7 -22 -4 -43 4 -35 4
-36 -6 -8 -7 22 -4 63 10 150 26 161 23 179 -6 36 -13 -63 -28 -135 -33 -160
-5 -26 -6 -49 0 -56 4 -5 6 -28 4 -50 l-4 -39 11 43 c10 40 27 57 29 30 0 -7
16 68 34 167 49 268 62 325 76 325 5 0 8 10 8 23 -1 12 6 60 15 106 9 47 14
87 11 89 -2 3 -7 -14 -11 -36 -7 -48 -34 -67 -34 -24 0 21 2 24 10 12 13 -20
14 4 1 28 -5 10 -3 53 5 107 8 50 12 97 10 105 -2 8 -5 4 -6 -10 l-2 -25 -7
24 c-4 16 -20 -63 -45 -223z"/>
<path d="M11492 4215 c0 -16 2 -22 5 -12 2 9 2 23 0 30 -3 6 -5 -1 -5 -18z"/>
<path d="M11482 4155 c0 -16 2 -22 5 -12 2 9 2 23 0 30 -3 6 -5 -1 -5 -18z"/>
<path d="M11561 4164 c0 -11 3 -14 6 -6 3 7 2 16 -1 19 -3 4 -6 -2 -5 -13z"/>
<path d="M11621 4144 c0 -11 3 -14 6 -6 3 7 2 16 -1 19 -3 4 -6 -2 -5 -13z"/>
<path d="M11676 4134 c-4 -14 -5 -28 -3 -31 3 -2 8 8 11 23 4 14 5 28 3 31 -3
2 -8 -8 -11 -23z"/>
<path d="M11581 4124 c0 -11 3 -14 6 -6 3 7 2 16 -1 19 -3 4 -6 -2 -5 -13z"/>
<path d="M11465 4075 c-3 -26 -4 -49 -2 -51 3 -3 8 16 12 41 3 26 4 49 2 51
-3 3 -8 -16 -12 -41z"/>
<path d="M3007 4104 c-3 -4 -2 -15 4 -26 11 -21 8 -101 -5 -130 -7 -15 -3 -18
22 -18 32 0 50 14 32 25 -5 3 -10 40 -10 81 0 65 -2 74 -18 74 -10 0 -22 -3
-25 -6z"/>
<path d="M3340 4095 c0 -8 7 -15 15 -15 8 0 15 7 15 15 0 8 -7 15 -15 15 -8 0
-15 -7 -15 -15z"/>
<path d="M5115 4101 c-3 -5 -1 -12 5 -16 13 -8 13 -122 0 -130 -20 -12 -10
-25 19 -25 31 0 49 14 31 25 -5 3 -10 40 -10 81 0 67 -2 74 -19 74 -11 0 -22
-4 -26 -9z"/>
<path d="M5450 4095 c0 -8 7 -15 15 -15 8 0 15 7 15 15 0 8 -7 15 -15 15 -8 0
-15 -7 -15 -15z"/>
<path d="M6989 4108 c0 -2 -1 -42 -2 -91 l-2 -87 29 0 c25 0 28 3 22 23 -3 12
-6 52 -6 90 0 60 -2 67 -20 67 -11 0 -20 -1 -21 -2z"/>
<path d="M7310 4097 c0 -19 10 -27 26 -20 21 8 17 33 -6 33 -11 0 -20 -6 -20
-13z"/>
<path d="M11762 3977 c-57 -172 -55 -166 -37 -137 9 14 14 18 12 10 -57 -197
-77 -273 -73 -277 2 -2 7 11 11 29 7 29 9 31 16 13 6 -14 7 -9 3 14 -5 24 -3
32 6 26 8 -5 11 -1 9 11 -1 11 1 26 4 34 3 8 26 96 51 195 24 99 48 188 51
198 4 9 3 17 -1 17 -5 0 -29 -60 -52 -133z"/>
<path d="M11656 4064 c-4 -14 -5 -28 -3 -31 3 -2 8 8 11 23 4 14 5 28 3 31 -3
2 -8 -8 -11 -23z"/>
<path d="M3224 4059 c-14 -16 -15 -23 -6 -26 6 -3 12 -21 12 -42 0 -20 5 -42
12 -49 17 -17 58 -15 58 3 0 8 -7 15 -15 15 -10 0 -15 11 -15 35 0 28 4 35 20
35 11 0 20 5 20 11 0 6 -9 13 -20 16 -11 3 -20 9 -20 14 0 17 -27 9 -46 -12z"/>
<path d="M5340 4058 c-14 -13 -19 -23 -12 -26 7 -2 12 -21 12 -42 0 -42 18
-63 51 -58 29 4 37 28 10 28 -17 0 -21 6 -21 35 0 28 4 35 20 35 11 0 20 5 20
11 0 6 -9 13 -20 16 -11 3 -20 9 -20 14 0 15 -15 10 -40 -13z"/>
<path d="M7207 4063 c-13 -15 -14 -27 -6 -68 11 -58 19 -68 50 -63 29 4 38 28
10 28 -17 0 -21 6 -21 35 0 28 4 35 20 35 11 0 20 7 20 15 0 8 -9 15 -20 15
-11 0 -20 5 -20 10 0 15 -15 12 -33 -7z"/>
<path d="M2362 4044 c-15 -10 -22 -25 -22 -49 0 -52 36 -77 84 -59 26 10 18
24 -14 24 -23 0 -31 5 -36 26 -9 35 10 53 36 36 17 -10 21 -10 27 4 12 32 -38
44 -75 18z"/>
<path d="M2482 4044 c-44 -31 -21 -114 32 -114 38 0 60 24 60 65 0 58 -45 82
-92 49z m56 -52 c3 -27 0 -32 -17 -32 -22 0 -39 39 -26 60 14 22 40 5 43 -28z"/>
<path d="M2610 4052 c-11 -2 -15 -17 -15 -62 -1 -59 0 -60 27 -60 29 0 45 14
28 25 -5 3 -10 22 -10 41 0 28 4 34 21 34 20 0 21 -4 16 -50 -6 -50 -6 -50 22
-50 28 0 28 1 23 48 -7 70 -16 82 -60 79 -20 -1 -44 -3 -52 -5z"/>
<path d="M2737 4053 c-9 -14 38 -118 55 -121 15 -3 58 79 58 113 0 33 -33 11
-35 -23 -2 -18 -6 -36 -9 -39 -10 -11 -18 4 -21 39 -2 24 -8 34 -23 36 -11 2
-22 0 -25 -5z"/>
<path d="M2892 4044 c-33 -23 -31 -90 2 -105 37 -17 72 -4 85 31 23 67 -31
114 -87 74z m54 -40 c8 -29 -7 -49 -30 -41 -16 6 -22 48 -9 60 14 15 33 6 39
-19z"/>
<path d="M3089 4053 c-14 -3 -16 -12 -12 -46 9 -69 16 -76 75 -74 l52 2 -3 55
c-3 60 -10 74 -33 65 -12 -5 -14 -17 -10 -51 4 -40 3 -44 -17 -44 -18 0 -21 6
-21 44 0 47 -5 55 -31 49z"/>
<path d="M3344 4054 c-8 -3 -10 -20 -7 -44 3 -23 1 -46 -6 -53 -14 -18 -4 -27
32 -27 24 0 28 3 21 18 -7 15 -10 38 -13 100 -1 12 -8 14 -27 6z"/>
<path d="M3420 4040 c-39 -39 -15 -110 38 -110 29 0 62 34 62 65 0 30 -32 65
-60 65 -11 0 -29 -9 -40 -20z m58 -48 c3 -27 0 -32 -17 -32 -17 0 -21 6 -21
36 0 28 3 35 18 32 11 -2 18 -14 20 -36z"/>
<path d="M3553 4053 c-7 -3 -9 -20 -6 -43 3 -23 1 -46 -6 -53 -14 -18 -4 -27
31 -27 28 0 37 13 18 25 -16 10 -12 65 6 72 21 8 36 -16 28 -47 -3 -13 -6 -29
-7 -34 -2 -12 29 -20 50 -12 13 5 14 9 5 18 -7 7 -12 29 -12 49 0 21 -6 41
-12 46 -13 8 -76 12 -95 6z"/>
<path d="M4472 4044 c-42 -29 -19 -114 30 -114 23 0 48 11 48 20 0 5 -12 10
-27 12 -23 2 -29 8 -31 36 -2 23 1 32 12 32 8 0 18 -4 21 -10 10 -17 25 -11
25 9 0 32 -42 40 -78 15z"/>
<path d="M4592 4044 c-33 -23 -31 -90 2 -105 37 -17 72 -4 85 31 23 67 -31
114 -87 74z m52 -30 c12 -32 6 -54 -14 -54 -21 0 -38 40 -25 59 9 16 32 13 39
-5z"/>
<path d="M4719 4052 c-10 -2 -14 -19 -14 -62 -1 -59 0 -60 27 -60 27 0 27 1
21 51 -5 46 -4 51 13 47 16 -3 19 -12 17 -51 -1 -46 0 -47 28 -47 25 0 29 3
25 23 -3 12 -8 39 -11 60 -3 20 -11 38 -18 39 -24 3 -74 3 -88 0z"/>
<path d="M4848 4055 c-10 -11 37 -120 54 -123 15 -3 58 79 58 113 0 33 -33 11
-35 -23 -2 -18 -6 -36 -9 -39 -10 -11 -18 4 -21 39 -2 24 -8 34 -22 36 -10 2
-22 0 -25 -3z"/>
<path d="M5002 4044 c-44 -31 -21 -114 32 -114 55 0 85 71 47 109 -25 25 -49
27 -79 5z m56 -52 c3 -27 0 -32 -17 -32 -22 0 -39 39 -26 60 14 22 40 5 43
-28z"/>
<path d="M5198 4053 c-13 -3 -15 -12 -11 -41 12 -76 16 -81 74 -79 l53 2 -3
55 c-3 60 -10 74 -33 65 -12 -5 -14 -17 -10 -51 4 -40 3 -44 -17 -44 -19 0
-21 6 -21 50 0 28 -3 49 -7 49 -5 -1 -16 -3 -25 -6z"/>
<path d="M5445 4047 c-12 -10 -14 -16 -7 -21 15 -9 16 -63 2 -71 -18 -11 0
-25 31 -25 29 0 39 13 19 25 -5 3 -10 28 -10 56 0 52 -5 57 -35 36z"/>
<path d="M5530 4040 c-39 -39 -14 -110 39 -110 35 0 61 28 61 67 0 56 -60 83
-100 43z m58 -48 c3 -28 0 -33 -15 -30 -12 2 -19 14 -21 36 -3 28 0 33 15 30
12 -2 19 -14 21 -36z"/>
<path d="M5663 4053 c-7 -3 -9 -20 -6 -43 3 -23 1 -46 -6 -53 -14 -18 -4 -27
32 -27 24 0 28 3 21 18 -14 33 -10 76 8 80 22 4 34 -38 19 -66 -12 -23 -6 -32
25 -32 25 0 40 15 24 25 -5 3 -10 24 -10 45 0 21 -6 42 -12 47 -13 8 -76 12
-95 6z"/>
<path d="M6338 4050 c-45 -27 -24 -120 26 -120 57 0 77 27 24 32 -26 2 -34 8
-36 27 -5 30 13 50 30 33 19 -19 30 -14 26 11 -3 25 -41 34 -70 17z"/>
<path d="M6450 4040 c-41 -41 -14 -110 43 -110 29 0 57 32 57 67 0 28 -33 63
-60 63 -11 0 -29 -9 -40 -20z m58 -48 c3 -28 0 -33 -15 -30 -12 2 -19 14 -21
36 -3 28 0 33 15 30 12 -2 19 -14 21 -36z"/>
<path d="M6583 4053 c-7 -3 -9 -20 -6 -43 3 -23 1 -46 -6 -53 -14 -18 -4 -27
32 -27 24 0 28 3 21 18 -4 9 -8 31 -8 47 -1 24 3 30 19 30 17 0 20 -6 18 -47
-1 -44 1 -48 22 -48 26 0 41 15 25 25 -5 3 -10 24 -10 45 0 21 -6 42 -12 47
-13 8 -76 12 -95 6z"/>
<path d="M6716 4051 c-9 -14 35 -121 50 -121 17 0 67 97 60 116 -10 26 -35 16
-34 -15 1 -15 -3 -34 -7 -41 -11 -17 -25 6 -25 43 0 20 -5 27 -19 27 -11 0
-22 -4 -25 -9z"/>
<path d="M6868 4050 c-25 -15 -33 -66 -14 -95 33 -51 106 -21 106 43 0 48 -50
76 -92 52z m50 -58 c3 -28 0 -33 -15 -30 -12 2 -19 14 -21 36 -3 28 0 33 15
30 12 -2 19 -14 21 -36z"/>
<path d="M7064 4054 c-13 -5 -7 -92 8 -110 5 -7 31 -12 58 -12 49 0 71 10 50
23 -6 4 -10 26 -9 51 3 53 -2 59 -33 43 -14 -7 -18 -14 -10 -17 6 -2 12 -19
12 -38 0 -27 -4 -34 -19 -34 -17 0 -20 8 -23 47 -3 45 -11 56 -34 47z"/>
<path d="M7320 4053 c-11 -3 -15 -19 -15 -63 -1 -59 0 -60 27 -60 29 0 45 14
28 25 -5 3 -10 26 -10 50 0 46 -5 54 -30 48z"/>
<path d="M7402 4044 c-33 -23 -31 -90 2 -105 34 -16 70 -4 84 26 30 65 -29
119 -86 79z m52 -30 c12 -32 6 -54 -14 -54 -21 0 -38 40 -25 59 9 16 32 13 39
-5z"/>
<path d="M7527 4052 c-13 -3 -16 -9 -12 -20 9 -22 9 -30 1 -69 -7 -32 -6 -33
23 -33 31 0 49 14 31 25 -5 3 -10 22 -10 41 0 28 4 34 21 34 20 0 21 -4 17
-50 -5 -49 -4 -50 22 -50 27 0 27 1 22 48 -8 81 -23 91 -115 74z"/>
<path d="M11601 4044 c0 -11 3 -14 6 -6 3 7 2 16 -1 19 -3 4 -6 -2 -5 -13z"/>
<path d="M11641 4004 c0 -11 3 -14 6 -6 3 7 2 16 -1 19 -3 4 -6 -2 -5 -13z"/>
<path d="M819 3998 c0 -2 -1 -31 -2 -66 -2 -59 -1 -62 22 -62 16 0 21 4 17 15
-3 8 -1 15 3 15 5 0 11 -7 15 -15 3 -8 13 -15 22 -15 15 0 15 2 -1 27 -12 18
-14 28 -7 31 17 5 15 32 -2 32 -7 0 -17 -10 -22 -22 -6 -19 -8 -16 -11 20 -3
28 -9 42 -19 42 -8 0 -14 -1 -15 -2z"/>
<path d="M1295 3935 c0 -58 2 -65 20 -65 18 0 20 5 15 62 -4 45 -9 64 -20 66
-12 2 -15 -10 -15 -63z"/>
<path d="M11614 3971 c3 -14 1 -30 -3 -35 -5 -6 -11 -36 -14 -66 -3 -30 -3
-46 0 -35 3 11 14 47 24 79 11 33 17 61 14 64 -3 3 -5 -1 -6 -9 0 -9 -4 -6
-10 6 -8 18 -9 17 -5 -4z"/>
<path d="M931 3946 c-7 -8 -11 -27 -9 -43 2 -23 8 -29 36 -31 18 -2 32 1 32 7
0 6 -10 11 -22 12 l-23 0 21 9 c31 12 37 26 18 44 -19 20 -38 20 -53 2z m34
-16 c3 -5 1 -10 -4 -10 -6 0 -11 5 -11 10 0 6 2 10 4 10 3 0 8 -4 11 -10z"/>
<path d="M1022 3950 c-4 -3 -7 -22 -8 -42 0 -34 2 -38 24 -38 18 0 22 3 15 13
-15 17 -12 47 4 47 7 0 13 6 13 13 0 13 -34 18 -48 7z"/>
<path d="M1093 3951 c-4 -3 -8 -23 -8 -44 0 -31 3 -37 21 -37 17 0 20 5 16 30
-3 24 -1 30 13 30 14 0 16 -6 12 -30 -6 -27 -4 -30 17 -30 22 0 23 3 16 34 -4
18 -10 38 -14 44 -7 11 -59 13 -73 3z"/>
<path d="M1211 3946 c-7 -8 -11 -27 -9 -43 2 -23 8 -29 36 -31 18 -2 32 1 32
7 0 6 -10 11 -22 12 l-23 0 21 9 c31 12 37 26 18 44 -19 20 -38 20 -53 2z m39
-16 c0 -5 -7 -10 -16 -10 -8 0 -12 5 -9 10 3 6 10 10 16 10 5 0 9 -4 9 -10z"/>
<path d="M11641 3874 c0 -11 3 -14 6 -6 3 7 2 16 -1 19 -3 4 -6 -2 -5 -13z"/>
<path d="M11631 3834 c0 -11 3 -14 6 -6 3 7 2 16 -1 19 -3 4 -6 -2 -5 -13z"/>
<path d="M9890 3620 l0 -220 220 0 220 0 0 220 0 220 -220 0 -220 0 0 -220z"/>
<path d="M3000 3814 c0 -9 -9 -18 -20 -21 -11 -3 -20 -12 -20 -19 0 -8 9 -14
20 -14 11 0 20 -7 20 -15 0 -8 5 -15 10 -15 6 0 10 6 10 14 0 7 9 16 20 19 11
3 20 10 20 16 0 6 -9 11 -20 11 -13 0 -20 7 -20 20 0 11 -4 20 -10 20 -5 0
-10 -7 -10 -16z"/>
<path d="M5110 3814 c0 -9 -9 -18 -20 -21 -26 -7 -26 -33 -1 -33 12 0 21 -8
24 -22 l4 -23 8 22 c4 11 15 23 26 26 25 7 24 27 -1 27 -13 0 -20 7 -20 20 0
11 -4 20 -10 20 -5 0 -10 -7 -10 -16z"/>
<path d="M6970 3811 c0 -14 -6 -21 -20 -21 -11 0 -20 -5 -20 -11 0 -6 9 -13
20 -16 11 -3 20 -12 20 -19 0 -8 5 -14 10 -14 6 0 10 6 10 14 0 8 10 16 22 18
30 4 34 26 6 30 -13 2 -23 9 -23 17 0 8 -6 16 -12 19 -8 2 -13 -5 -13 -17z"/>
<path d="M11581 3794 c0 -11 3 -14 6 -6 3 7 2 16 -1 19 -3 4 -6 -2 -5 -13z"/>
<path d="M11621 3794 c0 -11 3 -14 6 -6 3 7 2 16 -1 19 -3 4 -6 -2 -5 -13z"/>
<path d="M11636 3768 c-3 -13 -5 -32 -5 -43 1 -11 5 -2 10 19 10 42 6 62 -5
24z"/>
<path d="M11452 3755 c0 -16 2 -22 5 -12 2 9 2 23 0 30 -3 6 -5 -1 -5 -18z"/>
<path d="M11565 3738 c-3 -18 -9 -42 -12 -53 l-6 -20 -8 20 -8 20 0 -20 c-1
-27 10 -65 18 -65 4 0 12 33 18 72 12 74 10 106 -2 46z"/>
<path d="M11509 3683 c-3 -18 -2 -33 3 -33 4 0 8 -10 7 -22 0 -22 -1 -22 -8
-3 -6 14 -12 -6 -20 -65 -20 -135 -52 -284 -63 -295 -6 -7 -7 7 -3 40 4 28 5
48 2 45 -3 -3 -10 -39 -16 -80 -20 -137 -54 -282 -62 -269 -8 14 -9 10 -29
-101 -7 -36 -18 -89 -25 -117 -10 -37 -11 -62 -4 -85 11 -40 11 -40 1 -34 -4
2 -9 -12 -10 -32 -2 -20 -9 -59 -17 -86 -18 -58 -18 -69 -5 -61 5 3 2 -16 -6
-42 -8 -26 -17 -79 -19 -117 -3 -45 -11 -80 -25 -104 -17 -28 -18 -33 -4 -22
15 13 16 12 10 -15 -3 -17 -19 -113 -36 -215 -17 -102 -33 -191 -36 -199 -3
-10 -11 -3 -23 20 -66 123 -230 132 -303 16 -58 -92 -26 -197 76 -249 51 -26
112 -20 166 16 41 27 52 45 105 179 29 72 45 92 45 56 0 -26 -59 -416 -67
-443 -5 -17 -7 -16 -18 10 -28 65 -94 108 -166 107 -152 -2 -226 -185 -116
-291 44 -43 111 -60 169 -43 56 17 113 76 123 128 4 21 10 43 14 48 15 20 72
196 66 205 -3 5 1 34 10 65 9 30 14 59 10 65 -5 8 1 37 31 155 4 15 3 16 -4 6
-7 -9 -9 4 -8 42 0 30 4 50 8 43 5 -7 8 -3 8 10 0 11 7 45 16 75 13 42 18 50
24 34 5 -16 8 -13 13 14 11 56 9 68 -8 45 -8 -10 -15 -14 -15 -9 -1 6 -8 -8
-15 -30 l-14 -40 6 40 c3 22 12 58 19 80 l13 40 -5 -45 c-2 -25 7 6 20 68 14
63 29 127 35 144 6 17 11 40 10 52 0 12 -7 -4 -15 -34 -39 -143 -36 -136 -45
-115 -10 27 -11 43 0 27 5 -9 11 8 15 48 8 70 19 105 41 126 8 9 15 21 14 27
0 8 -2 8 -6 -1 -2 -6 -8 -10 -13 -7 -10 6 7 74 24 94 8 12 8 13 -1 7 -7 -4
-13 -2 -13 3 0 6 7 11 15 11 8 0 17 10 20 23 18 81 25 120 22 124 -3 2 -13
-28 -22 -66 -10 -39 -22 -68 -26 -65 -9 5 -14 -11 -30 -96 -17 -96 -26 -101
-25 -16 1 41 4 67 7 58 4 -10 9 3 13 33 4 28 17 65 28 82 10 18 20 48 21 67 1
19 5 32 8 30 4 -2 10 3 13 12 9 23 8 26 -6 18 -7 -5 -9 -2 -5 8 10 28 30 138
25 143 -2 3 -11 -24 -18 -60 -9 -43 -18 -65 -28 -65 -9 0 -12 6 -8 16 14 37
39 152 41 189 1 22 4 63 8 90 3 28 -1 15 -11 -30 -10 -44 -21 -75 -25 -69 -7
13 16 166 32 205 9 22 10 22 11 -11 1 -21 13 17 30 100 15 74 38 173 50 220
25 96 26 98 13 160 -9 45 -9 45 -14 13z m-142 -765 c-3 -7 -5 -2 -5 12 0 14 2
19 5 13 2 -7 2 -19 0 -25z m-11 -69 c-9 -69 -27 -109 -21 -49 2 25 -4 8 -14
-40 -24 -108 -27 -74 -4 45 13 73 18 85 25 65 7 -22 7 -22 5 7 -2 18 1 29 6
26 5 -3 6 -27 3 -54z m34 -76 c0 -14 -2 -15 -9 -4 -6 9 -13 -11 -21 -60 -7
-41 -17 -83 -21 -94 -7 -16 -8 -13 -5 10 3 17 8 55 12 85 4 30 9 58 10 63 1 4
2 9 3 12 3 14 31 3 31 -12z m-74 -164 c-8 -45 -17 -84 -20 -86 -2 -2 -6 10 -8
26 -2 16 -1 28 4 25 4 -3 8 2 8 10 0 8 5 38 11 66 18 83 22 49 5 -41z m-39
-91 c-3 -7 -5 -2 -5 12 0 14 2 19 5 13 2 -7 2 -19 0 -25z m11 -133 c0 -16 -2
-15 -8 5 -4 14 -8 34 -8 45 0 16 2 15 8 -5 4 -14 8 -34 8 -45z m-10 -45 c0 -9
-3 -7 -8 5 -5 11 -8 29 -8 40 0 16 2 15 8 -5 4 -14 8 -32 8 -40z m-14 -84 c-3
-15 -8 -25 -11 -23 -2 3 -1 17 3 31 3 15 8 25 11 23 2 -3 1 -17 -3 -31z m23
12 c-3 -8 -6 -5 -6 6 -1 11 2 17 5 13 3 -3 4 -12 1 -19z m10 -60 c-3 -7 -5 -2
-5 12 0 14 2 19 5 13 2 -7 2 -19 0 -25z m-50 -10 c-3 -8 -6 -5 -6 6 -1 11 2
17 5 13 3 -3 4 -12 1 -19z m40 -40 c-3 -7 -5 -2 -5 12 0 14 2 19 5 13 2 -7 2
-19 0 -25z m-50 -70 c-3 -8 -6 -5 -6 6 -1 11 2 17 5 13 3 -3 4 -12 1 -19z
m-17 -208 c0 -5 -4 -10 -10 -10 -5 0 -10 5 -10 10 0 6 5 10 10 10 6 0 10 -4
10 -10z"/>
<path d="M11656 3685 c-3 -9 -6 -22 -5 -28 0 -7 5 -1 10 12 5 13 8 26 5 28 -2
2 -6 -3 -10 -12z"/>
<path d="M2846 3664 c-17 -17 -18 -19 -20 -106 l-1 -58 35 0 c26 0 31 3 22 12
-7 7 -12 27 -12 45 0 25 4 33 18 33 13 0 21 -12 28 -42 8 -39 12 -43 42 -46
24 -2 32 1 32 12 0 9 -9 16 -20 16 -16 0 -20 7 -20 30 0 23 4 30 20 30 11 0
20 7 20 15 0 8 -9 15 -20 15 -11 0 -20 7 -20 16 0 13 -4 13 -27 -4 -16 -10
-34 -17 -40 -15 -18 6 -16 33 2 33 8 0 15 7 15 15 0 20 -34 19 -54 -1z"/>
<path d="M4956 3664 c-17 -17 -18 -19 -20 -106 l-1 -58 35 0 c26 0 31 3 22 12
-14 14 -16 78 -2 78 22 0 25 -4 35 -44 9 -37 14 -41 43 -44 24 -2 32 1 32 12
0 9 -9 16 -20 16 -16 0 -20 7 -20 30 0 23 4 30 20 30 11 0 20 7 20 15 0 8 -9
15 -20 15 -12 0 -20 7 -20 16 0 13 -4 12 -26 -5 -27 -21 -54 -19 -54 5 0 8 7
14 15 14 8 0 15 7 15 15 0 20 -34 19 -54 -1z"/>
<path d="M6828 3669 c-10 -5 -18 -18 -18 -27 0 -10 -5 -23 -11 -29 -8 -8 -8
-13 0 -17 14 -9 14 -63 1 -71 -21 -13 -9 -25 25 -25 34 0 46 12 25 25 -5 3
-10 19 -10 36 0 24 4 29 25 29 21 0 25 -5 25 -29 0 -47 10 -61 40 -61 35 0 50
19 21 27 -29 8 -30 63 -1 63 11 0 20 7 20 15 0 8 -9 15 -20 15 -11 0 -20 7
-20 15 0 20 -13 19 -34 -4 -10 -11 -25 -17 -37 -14 -25 7 -25 33 1 33 11 0 20
7 20 15 0 17 -27 19 -52 4z"/>
<path d="M2593 3613 c-23 -9 -15 -53 12 -65 14 -6 25 -15 25 -21 0 -5 -11 -6
-25 -3 -19 5 -25 2 -25 -9 0 -23 69 -16 84 8 9 15 7 22 -12 37 -12 10 -28 20
-35 23 -6 2 -8 8 -4 13 4 4 16 3 27 -4 20 -12 36 -1 25 18 -6 10 -50 12 -72 3z"/>
<path d="M2696 3598 c-33 -47 -13 -98 39 -98 41 0 65 22 65 60 0 16 -7 36 -16
44 -23 24 -70 20 -88 -6z m64 -44 c0 -28 -3 -35 -17 -32 -12 2 -19 14 -21 36
-3 27 0 32 17 32 17 0 21 -6 21 -36z"/>
<path d="M3019 3616 c0 0 -1 -27 -2 -59 l-2 -57 35 0 c26 0 31 3 22 12 -7 7
-12 27 -12 45 0 27 4 33 21 33 20 0 21 -4 16 -45 -7 -45 -6 -45 23 -45 29 0
40 13 20 25 -5 3 -10 19 -10 36 0 23 4 29 21 29 20 0 21 -4 17 -45 -5 -44 -5
-45 22 -45 27 0 27 1 22 48 -2 26 -9 52 -14 58 -6 9 -174 18 -179 10z"/>
<path d="M3247 3613 c-16 -15 -5 -31 21 -29 34 1 45 -18 12 -22 -29 -4 -51
-28 -43 -48 3 -9 22 -13 58 -13 l52 1 -4 47 c-3 25 -6 52 -8 59 -5 13 -76 17
-88 5z m58 -73 c3 -6 -1 -13 -10 -16 -19 -8 -30 0 -20 15 8 14 22 14 30 1z"/>
<path d="M3370 3615 c0 -3 7 -17 16 -31 15 -23 15 -26 0 -43 -22 -24 -20 -41
4 -41 12 0 20 6 18 13 -2 6 2 12 7 12 6 0 9 -6 9 -12 -1 -8 11 -13 33 -13 36
0 36 6 5 43 -14 15 -13 19 6 40 28 30 28 37 -3 37 -17 0 -25 -5 -23 -14 2 -8
-1 -15 -7 -15 -5 0 -9 7 -7 15 2 10 -6 14 -28 14 -16 0 -30 -2 -30 -5z"/>
<path d="M4702 3608 c-20 -20 -14 -48 13 -60 14 -6 25 -15 25 -21 0 -5 -11 -6
-25 -3 -19 5 -25 2 -25 -9 0 -13 9 -15 42 -13 55 4 64 31 22 65 -16 12 -25 25
-21 29 3 4 13 1 21 -5 16 -13 32 1 21 19 -9 14 -58 13 -73 -2z"/>
<path d="M4809 3604 c-18 -21 -17 -83 2 -95 26 -16 77 -11 89 10 14 26 13 74
-2 89 -17 17 -73 15 -89 -4z m64 -28 c9 -24 -4 -58 -20 -52 -8 3 -17 6 -19 6
-2 0 -4 14 -4 30 0 23 5 30 19 30 10 0 21 -6 24 -14z"/>
<path d="M5129 3616 c0 0 -1 -27 -2 -59 -2 -55 -1 -57 24 -57 25 0 26 2 21 45
-4 42 -3 45 18 45 21 0 22 -3 18 -45 -5 -44 -5 -45 23 -45 29 0 38 13 19 25
-5 3 -10 19 -10 36 0 23 4 29 21 29 20 0 21 -4 17 -45 -5 -44 -5 -45 23 -45
26 0 27 2 23 38 -12 86 -4 80 -104 80 -49 0 -90 -1 -91 -2z"/>
<path d="M5357 3613 c-18 -17 -6 -32 22 -27 16 4 32 1 35 -5 5 -7 -4 -14 -23
-17 -36 -7 -56 -28 -48 -49 4 -10 21 -14 60 -14 l54 1 -5 47 c-2 25 -9 52 -15
59 -10 13 -69 17 -80 5z m58 -73 c3 -6 -1 -13 -10 -16 -19 -8 -30 0 -20 15 8
14 22 14 30 1z"/>
<path d="M5480 3615 c0 -3 7 -17 16 -31 15 -23 15 -26 0 -43 -22 -24 -20 -41
3 -41 12 0 21 8 24 23 l4 22 8 -22 c5 -17 15 -23 36 -23 32 0 37 11 14 30 -8
7 -15 20 -15 30 0 10 7 23 15 30 22 18 18 30 -10 30 -17 0 -25 -5 -23 -14 2
-8 -1 -15 -7 -15 -5 0 -9 7 -7 15 2 10 -6 14 -28 14 -16 0 -30 -2 -30 -5z"/>
<path d="M6559 3598 c-10 -19 -8 -25 22 -51 l34 -29 -32 7 c-27 5 -33 3 -33
-10 0 -23 79 -17 94 8 11 19 8 24 -41 53 -24 16 -10 29 16 14 18 -9 21 -8 21
10 0 30 -65 29 -81 -2z"/>
<path d="M6676 3605 c-20 -20 -21 -78 -2 -94 26 -21 79 -9 96 22 13 24 13 30
0 55 -19 33 -69 42 -94 17z m59 -49 c0 -36 -20 -45 -35 -16 -15 27 -5 53 17
48 12 -2 18 -13 18 -32z"/>
<path d="M6995 3559 c0 -57 1 -59 26 -59 25 0 26 2 21 45 -4 38 -2 45 13 45
15 0 17 -7 13 -45 l-6 -45 36 0 c28 0 33 3 24 12 -7 7 -12 27 -12 45 0 27 4
33 21 33 20 0 21 -4 17 -45 -5 -44 -5 -45 23 -45 30 0 36 9 20 25 -5 6 -11 28
-13 50 l-3 40 -90 2 -91 2 1 -60z"/>
<path d="M7220 3600 c0 -17 5 -19 31 -13 25 5 31 3 27 -8 -2 -8 -14 -15 -26
-17 -26 -4 -46 -27 -38 -47 4 -11 20 -15 59 -15 l55 0 -6 48 c-6 61 -16 72
-63 72 -32 0 -39 -3 -39 -20z m60 -65 c0 -8 -6 -15 -14 -15 -20 0 -29 17 -14
23 22 9 28 7 28 -8z"/>
<path d="M7346 3608 c4 -7 14 -21 22 -31 14 -15 13 -19 -6 -40 -28 -30 -28
-37 2 -37 13 0 23 6 22 13 0 6 3 12 9 12 5 0 9 -6 7 -12 -2 -8 8 -13 28 -13
35 0 36 2 14 36 -15 23 -15 26 0 43 22 24 20 41 -3 41 -12 0 -21 -8 -24 -22
l-4 -23 -8 23 c-5 16 -15 22 -37 22 -20 0 -27 -4 -22 -12z"/>
<path d="M11800 3608 c0 -7 -13 -41 -29 -75 -16 -34 -27 -64 -24 -67 4 -3 2
-6 -4 -6 -6 0 -13 -7 -16 -14 -4 -10 -1 -13 9 -9 11 4 9 -10 -10 -63 -14 -38
-23 -70 -21 -73 3 -2 5 1 5 8 0 7 5 9 12 5 7 -4 8 -3 4 5 -4 6 -2 19 6 28 7 9
12 19 12 22 -1 3 0 11 2 16 2 6 17 53 32 105 16 52 33 103 37 113 4 10 3 17
-4 17 -6 0 -11 -6 -11 -12z"/>
<path d="M11625 3589 c-6 -17 -9 -19 -17 -8 -8 11 -9 11 -5 -2 3 -9 -1 -34 -8
-55 -26 -73 -14 -69 15 5 16 41 28 76 26 79 -2 2 -7 -6 -11 -19z"/>
<path d="M11646 3534 c-4 -14 -5 -28 -3 -31 3 -2 8 8 11 23 4 14 5 28 3 31 -3
2 -8 -8 -11 -23z"/>
<path d="M11661 3494 c0 -11 3 -14 6 -6 3 7 2 16 -1 19 -3 4 -6 -2 -5 -13z"/>
<path d="M11626 3464 c-4 -14 -5 -28 -3 -31 3 -2 8 8 11 23 4 14 5 28 3 31 -3
2 -8 -8 -11 -23z"/>
<path d="M11651 3454 c0 -11 3 -14 6 -6 3 7 2 16 -1 19 -3 4 -6 -2 -5 -13z"/>
<path d="M11571 3434 c0 -11 3 -14 6 -6 3 7 2 16 -1 19 -3 4 -6 -2 -5 -13z"/>
<path d="M11486 3268 c-16 -90 -36 -185 -44 -213 -17 -58 -17 -58 -4 -63 5 -1
13 17 16 40 4 24 22 93 40 155 21 71 30 116 25 124 -5 8 -6 38 -3 67 12 102
-2 50 -30 -110z"/>
<path d="M11641 3404 c0 -11 3 -14 6 -6 3 7 2 16 -1 19 -3 4 -6 -2 -5 -13z"/>
<path d="M11547 3358 c-12 -39 -13 -48 -3 -37 12 13 32 89 23 89 -2 0 -11 -23
-20 -52z"/>
<path d="M11631 3364 c0 -11 3 -14 6 -6 3 7 2 16 -1 19 -3 4 -6 -2 -5 -13z"/>
<path d="M9890 3140 l0 -220 225 0 225 0 0 220 0 220 -225 0 -225 0 0 -220z"/>
<path d="M11342 3330 c0 -14 2 -19 5 -12 2 6 2 18 0 25 -3 6 -5 1 -5 -13z"/>
<path d="M11647 3275 c-24 -50 -20 -58 4 -12 11 22 19 41 17 43 -3 2 -12 -12
-21 -31z"/>
<path d="M11382 3280 c0 -14 2 -19 5 -12 2 6 2 18 0 25 -3 6 -5 1 -5 -13z"/>
<path d="M11332 3270 c0 -14 2 -19 5 -12 2 6 2 18 0 25 -3 6 -5 1 -5 -13z"/>
<path d="M11688 3272 c-3 -11 0 -19 7 -19 7 0 10 8 7 19 -2 10 -6 18 -7 18 -1
0 -5 -8 -7 -18z"/>
<path d="M11372 3230 c0 -14 2 -19 5 -12 2 6 2 18 0 25 -3 6 -5 1 -5 -13z"/>
<path d="M11322 3220 c0 -14 2 -19 5 -12 2 6 2 18 0 25 -3 6 -5 1 -5 -13z"/>
<path d="M11347 3122 c-19 -89 -20 -92 -9 -92 8 0 35 160 29 167 -2 2 -11 -32
-20 -75z"/>
<path d="M11314 3176 c-3 -8 -4 -23 -2 -33 3 -11 6 -6 9 15 6 34 2 42 -7 18z"/>
<path d="M11592 3167 c-6 -6 -13 -26 -16 -42 -3 -17 -3 -23 0 -15 4 8 13 27
21 43 14 29 12 35 -5 14z"/>
<path d="M11325 3125 c-6 -40 -9 -45 -14 -26 -5 18 -10 4 -18 -50 -6 -41 -11
-83 -12 -94 -1 -61 -90 -512 -132 -672 -10 -40 -19 -75 -19 -78 0 -14 -18 -2
-30 20 -17 32 -86 65 -136 65 -136 -1 -219 -146 -147 -257 33 -52 90 -85 147
-85 93 0 176 82 176 173 0 16 9 52 20 81 12 29 23 85 27 123 3 39 16 112 29
163 13 52 22 98 19 103 -3 4 17 101 45 215 28 113 48 215 44 226 -3 10 0 41 6
68 7 27 10 55 8 62 -3 7 -8 -9 -13 -37z m-18 -87 c-3 -8 -6 -5 -6 6 -1 11 2
17 5 13 3 -3 4 -12 1 -19z m10 -40 c-3 -8 -6 -5 -6 6 -1 11 2 17 5 13 3 -3 4
-12 1 -19z m-8 -38 c0 -9 -4 -8 -9 5 -5 11 -9 27 -9 35 0 9 4 8 9 -5 5 -11 9
-27 9 -35z"/>
<path d="M11511 3134 c0 -11 3 -14 6 -6 3 7 2 16 -1 19 -3 4 -6 -2 -5 -13z"/>
<path d="M11636 3135 c-3 -9 -6 -22 -5 -28 0 -7 5 -1 10 12 5 13 8 26 5 28 -2
2 -6 -3 -10 -12z"/>
<path d="M11656 3099 c-8 -42 0 -50 9 -9 4 17 5 34 2 36 -2 3 -7 -10 -11 -27z"/>
<path d="M11800 3107 c0 -7 -12 -30 -26 -50 -14 -21 -23 -41 -20 -44 3 -3 -2
-19 -10 -35 -11 -22 -12 -29 -3 -26 7 2 27 40 46 83 38 91 36 85 23 85 -5 0
-10 -6 -10 -13z"/>
<path d="M11501 3084 c0 -11 3 -14 6 -6 3 7 2 16 -1 19 -3 4 -6 -2 -5 -13z"/>
<path d="M11547 3055 c-13 -26 -13 -33 -3 -29 12 5 29 54 22 61 -1 2 -10 -13
-19 -32z"/>
<path d="M11476 2962 c-10 -53 -26 -116 -36 -139 -17 -39 -17 -53 1 -53 4 0
10 17 14 37 4 21 17 63 30 93 16 39 22 69 20 104 -2 26 -5 50 -8 52 -2 2 -11
-40 -21 -94z"/>
<path d="M11641 3043 c-1 -6 -4 -20 -7 -30 -5 -17 -5 -17 6 0 6 10 9 23 6 30
-3 9 -5 9 -5 0z"/>
<path d="M11432 2960 c0 -14 2 -19 5 -12 2 6 2 18 0 25 -3 6 -5 1 -5 -13z"/>
<path d="M11728 2933 c7 -3 16 -2 19 1 4 3 -2 6 -13 5 -11 0 -14 -3 -6 -6z"/>
<path d="M9890 2668 l0 -223 220 3 220 3 0 219 0 220 -220 0 -220 0 0 -222z"/>
<path d="M11501 2824 c0 -11 3 -14 6 -6 3 7 2 16 -1 19 -3 4 -6 -2 -5 -13z"/>
<path d="M11650 2789 c-7 -11 -10 -23 -7 -25 2 -2 9 7 15 21 14 30 7 33 -8 4z"/>
<path d="M11486 2766 c-4 -18 -3 -41 0 -51 5 -12 4 -16 -3 -12 -10 6 -13 -3
-29 -92 -3 -13 -13 -40 -24 -61 -11 -21 -17 -40 -14 -42 2 -3 -2 -24 -10 -46
-9 -23 -11 -42 -6 -42 5 0 14 19 20 43 22 83 33 113 62 157 16 25 20 34 9 21
-22 -25 -28 -13 -10 20 9 19 22 139 15 139 -2 0 -7 -15 -10 -34z"/>
<path d="M11548 2731 c-13 -27 -19 -47 -13 -44 12 5 55 93 45 93 -4 0 -18 -22
-32 -49z"/>
<path d="M11431 2744 c0 -11 3 -14 6 -6 3 7 2 16 -1 19 -3 4 -6 -2 -5 -13z"/>
<path d="M11636 2655 c-9 -26 -7 -32 5 -12 6 10 9 21 6 23 -2 3 -7 -2 -11 -11z"/>
<path d="M11387 2503 c-4 -3 -7 -11 -7 -17 0 -6 5 -5 12 2 6 6 9 14 7 17 -3 3
-9 2 -12 -2z"/>
<path d="M11476 2476 c-3 -14 -3 -33 1 -43 3 -10 2 -15 -2 -10 -7 6 -45 -92
-45 -113 0 -3 18 33 40 79 41 86 51 116 24 71 l-15 -25 6 33 c8 37 0 44 -9 8z"/>
<path d="M11412 2275 c-7 -15 -11 -30 -8 -32 7 -7 28 36 24 49 -2 6 -9 -2 -16
-17z"/>
<path d="M11496 2275 c-9 -26 -7 -32 5 -12 6 10 9 21 6 23 -2 3 -7 -2 -11 -11z"/>
<path d="M11476 2225 c-9 -26 -7 -32 5 -12 6 10 9 21 6 23 -2 3 -7 -2 -11 -11z"/>
<path d="M11342 2160 c-6 -24 -9 -46 -7 -48 6 -6 27 68 23 80 -3 7 -10 -8 -16
-32z"/>
<path d="M9938 2093 c-21 -5 -30 -33 -32 -100 -1 -51 -1 -53 26 -53 25 0 26 2
21 36 -4 25 -2 39 8 46 11 7 11 11 2 15 -18 7 -16 24 3 38 14 9 14 13 3 17 -8
2 -22 3 -31 1z"/>
<path d="M10217 2058 c-13 -11 -15 -22 -9 -63 6 -45 10 -50 35 -53 29 -4 37
12 12 22 -24 9 -19 53 7 59 28 8 30 6 37 -40 6 -37 7 -38 55 -41 42 -3 48 -1
42 13 -3 9 -6 32 -6 51 0 27 -4 34 -19 34 -16 0 -18 -5 -14 -40 5 -33 3 -40
-11 -40 -12 0 -16 10 -16 40 0 40 0 40 -40 40 -24 0 -42 6 -47 15 -7 12 -12
13 -26 3z"/>
<path d="M9560 2043 c-8 -3 -18 -11 -22 -17 -13 -19 -9 -63 6 -75 17 -14 73
-11 67 4 -2 6 -12 9 -23 7 -28 -5 -22 17 7 24 30 7 33 39 6 54 -11 5 -21 10
-23 9 -2 0 -10 -3 -18 -6z m25 -33 c-3 -5 -10 -10 -16 -10 -5 0 -9 5 -9 10 0
6 7 10 16 10 8 0 12 -4 9 -10z"/>
<path d="M9768 2039 c-21 -12 -24 -69 -6 -87 17 -17 68 -15 68 2 0 9 -7 12
-19 9 -10 -3 -22 0 -26 6 -4 7 6 14 24 17 34 7 39 24 15 48 -18 18 -32 20 -56
5z m37 -29 c-3 -5 -10 -10 -16 -10 -5 0 -9 5 -9 10 0 6 7 10 16 10 8 0 12 -4
9 -10z"/>
<path d="M10002 2034 c-25 -18 -30 -65 -8 -83 17 -14 72 -11 68 4 -2 6 -9 9
-17 7 -25 -5 -26 17 0 24 30 7 34 39 6 54 -25 13 -22 13 -49 -6z m38 -24 c0
-5 -7 -10 -15 -10 -8 0 -15 5 -15 10 0 6 7 10 15 10 8 0 15 -4 15 -10z"/>
<path d="M10109 2042 c-11 -5 -14 -13 -9 -26 4 -14 9 -16 14 -8 8 13 36 16 36
4 0 -4 -14 -13 -31 -19 -21 -8 -30 -17 -27 -30 2 -14 14 -19 49 -21 l47 -3 -6
48 c-2 26 -5 49 -6 50 -5 7 -54 11 -67 5z m41 -72 c0 -5 -7 -10 -15 -10 -8 0
-15 5 -15 10 0 6 7 10 15 10 8 0 15 -4 15 -10z"/>
<path d="M10520 2030 c-38 -38 -16 -94 35 -88 16 1 30 8 32 15 3 7 -3 10 -15
6 -33 -8 -34 14 -2 25 33 12 32 35 -1 52 -24 13 -26 13 -49 -10z m40 -20 c0
-5 -4 -10 -9 -10 -6 0 -13 5 -16 10 -3 6 1 10 9 10 9 0 16 -4 16 -10z"/>
<path d="M10638 2043 c-30 -8 -31 -36 -1 -61 28 -23 28 -23 4 -20 -13 2 -26
-3 -28 -9 -8 -22 65 -16 77 6 8 16 5 23 -18 41 -25 20 -25 21 -4 17 26 -6 31
17 6 27 -9 3 -16 5 -17 5 -1 -1 -9 -3 -19 -6z"/>
<path d="M9630 2035 c0 -3 7 -22 15 -42 9 -22 13 -49 10 -65 -11 -48 13 -31
45 32 33 66 36 80 16 80 -7 0 -17 -15 -20 -32 -6 -29 -8 -31 -17 -15 -6 10 -8
25 -5 33 4 10 -2 14 -19 14 -14 0 -25 -2 -25 -5z"/>
<path d="M10425 1990 c0 -49 1 -50 30 -50 22 0 26 3 17 12 -17 17 -15 57 3 64
26 10 16 24 -17 24 -33 0 -33 0 -33 -50z"/>
<path d="M11301 1984 c0 -11 3 -14 6 -6 3 7 2 16 -1 19 -3 4 -6 -2 -5 -13z"/>
<path d="M11291 1944 c0 -11 3 -14 6 -6 3 7 2 16 -1 19 -3 4 -6 -2 -5 -13z"/>
<path d="M11316 1924 c-4 -14 -5 -28 -3 -31 3 -2 8 8 11 23 4 14 5 28 3 31 -3
2 -8 -8 -11 -23z"/>
<path d="M11301 1864 c0 -11 3 -14 6 -6 3 7 2 16 -1 19 -3 4 -6 -2 -5 -13z"/>
<path d="M9983 1809 c-53 -20 -143 -98 -143 -123 0 -24 75 -89 138 -119 58
-27 70 -29 145 -25 67 3 92 10 135 33 59 32 112 86 112 113 0 27 -68 88 -130
116 -71 33 -179 35 -257 5z m214 -24 c29 -9 69 -32 97 -56 l47 -42 -23 -24
c-63 -68 -177 -103 -269 -84 -58 13 -137 58 -157 91 -12 19 -9 25 24 56 74 67
179 89 281 59z"/>
<path d="M10060 1777 c-14 -7 -33 -29 -43 -50 -35 -70 13 -142 95 -142 56 0
93 40 93 101 0 39 -5 50 -33 75 -35 31 -71 37 -112 16z m94 -42 c26 -27 29
-56 9 -84 -55 -74 -160 1 -107 77 18 26 74 30 98 7z"/>
<path d="M11301 1749 c-6 -18 -9 -34 -7 -36 2 -2 9 10 15 28 6 18 9 34 7 36
-2 2 -9 -10 -15 -28z"/>
<path d="M14000 937 c0 -7 5 -18 11 -24 7 -7 -363 -12 -1298 -17 -719 -3
-1519 -9 -1778 -12 l-470 -6 19 21 c17 18 17 21 3 27 -18 7 -87 -41 -87 -61 0
-17 76 -68 90 -60 8 5 6 12 -5 25 -15 17 34 18 1172 24 653 3 1454 9 1778 12
482 5 588 3 578 -7 -16 -16 -17 -39 -2 -39 17 0 79 51 79 65 0 14 -62 65 -79
65 -6 0 -11 -6 -11 -13z"/>
<path d="M11013 808 c-26 -42 -33 -62 -23 -72 13 -13 13 -63 0 -71 -21 -13 -9
-25 25 -25 36 0 43 8 24 27 -6 6 -9 23 -7 39 2 21 9 30 26 32 20 3 22 -1 22
-36 0 -49 12 -59 72 -60 47 0 69 10 48 23 -5 3 -10 25 -10 49 0 51 -6 59 -32
45 -15 -8 -17 -14 -9 -22 6 -6 11 -24 11 -39 0 -21 -5 -28 -19 -28 -17 0 -20
8 -23 48 -3 40 -6 47 -23 45 -29 -4 -65 6 -65 17 0 6 9 10 20 10 11 0 20 7 20
15 0 18 -45 20 -57 3z"/>
<path d="M11230 818 c0 -2 -2 -42 -3 -91 l-2 -87 27 0 c29 0 45 14 28 25 -5 3
-10 40 -10 81 0 67 -2 74 -20 74 -11 0 -20 -1 -20 -2z"/>
<path d="M11310 818 c0 -2 -2 -42 -3 -91 l-2 -87 27 0 c29 0 45 14 28 25 -5 3
-10 40 -10 81 0 67 -2 74 -20 74 -11 0 -20 -1 -20 -2z"/>
<path d="M12646 811 c-4 -5 -4 -15 -1 -23 4 -9 -6 -17 -27 -23 -43 -13 -59
-54 -37 -93 13 -24 21 -27 64 -27 l48 0 -2 80 c-1 43 -5 83 -7 87 -7 11 -32
10 -38 -1z m4 -107 c0 -28 -3 -35 -17 -32 -12 2 -19 14 -21 36 -3 27 0 32 17
32 17 0 21 -6 21 -36z"/>
<path d="M12765 811 c-3 -5 -1 -12 5 -16 13 -8 13 -122 0 -130 -21 -13 -9 -25
25 -25 34 0 46 12 25 25 -5 3 -10 40 -10 81 0 67 -2 74 -19 74 -11 0 -22 -4
-26 -9z"/>
<path d="M12359 769 c-17 -14 -20 -22 -11 -25 6 -3 12 -21 12 -39 0 -18 3 -40
6 -49 8 -21 64 -22 64 -1 0 8 -7 15 -15 15 -10 0 -15 11 -15 35 0 28 4 35 20
35 13 0 18 5 14 15 -4 8 -12 15 -20 15 -8 0 -14 5 -14 10 0 16 -16 12 -41 -11z"/>
<path d="M11376 761 c-4 -5 3 -33 14 -61 15 -39 18 -56 9 -66 -11 -14 -5 -34
12 -34 14 0 82 147 74 160 -10 17 -36 12 -34 -7 4 -27 -11 -64 -22 -57 -6 3
-9 20 -7 37 2 26 -1 33 -19 35 -11 2 -24 -1 -27 -7z"/>
<path d="M11570 750 c-41 -41 -12 -114 43 -108 39 4 47 26 10 30 -21 2 -29 9
-31 27 -5 30 13 50 30 33 17 -17 28 -15 28 7 0 35 -50 41 -80 11z"/>
<path d="M11690 750 c-39 -39 -15 -110 38 -110 29 0 62 34 62 65 0 30 -32 65
-60 65 -11 0 -29 -9 -40 -20z m58 -48 c3 -27 0 -32 -17 -32 -17 0 -21 6 -21
36 0 28 3 35 18 32 11 -2 18 -14 20 -36z"/>
<path d="M11813 755 c-11 -9 -13 -14 -5 -19 15 -9 16 -63 2 -71 -18 -11 0 -25
31 -25 30 0 36 9 18 27 -17 17 -7 67 14 71 16 3 18 -2 16 -45 -3 -39 0 -48 14
-51 29 -6 52 7 39 20 -7 7 -12 29 -12 49 0 21 -6 41 -12 46 -20 12 -87 11
-105 -2z"/>
<path d="M11980 762 c-11 -2 -15 -17 -15 -62 -1 -59 0 -60 27 -60 29 0 45 14
28 25 -5 3 -10 22 -10 41 0 28 3 35 18 32 13 -3 17 -13 15 -51 -1 -46 -1 -47
29 -47 23 0 29 4 24 16 -3 9 -6 30 -6 47 0 18 -4 39 -10 47 -8 13 -61 20 -100
12z"/>
<path d="M12130 750 c-50 -50 -1 -129 64 -104 24 9 19 24 -8 24 -14 0 -27 4
-30 9 -7 10 17 21 45 21 25 0 25 31 1 53 -25 22 -48 21 -72 -3z m50 -19 c0 -5
-7 -11 -15 -15 -9 -3 -15 0 -15 9 0 8 7 15 15 15 8 0 15 -4 15 -9z"/>
<path d="M12258 760 c-26 -15 -33 -66 -13 -96 13 -20 23 -24 47 -22 40 4 48
26 11 30 -21 2 -29 9 -31 27 -5 30 13 50 30 33 17 -17 28 -15 28 7 0 29 -39
40 -72 21z"/>
<path d="M12470 750 c-50 -50 -1 -129 64 -104 24 9 19 24 -8 24 -14 0 -27 4
-30 9 -7 10 17 21 45 21 25 0 25 31 1 53 -25 22 -48 21 -72 -3z m50 -20 c0 -5
-7 -10 -15 -10 -8 0 -15 5 -15 10 0 6 7 10 15 10 8 0 15 -4 15 -10z"/>
<path d="M12863 763 c-7 -2 -13 -13 -13 -24 0 -20 15 -26 25 -9 9 15 35 12 35
-4 0 -7 -13 -16 -29 -19 -16 -3 -31 -14 -35 -23 -11 -28 12 -43 62 -41 l47 2
-3 50 c-5 65 -37 90 -89 68z m52 -83 c3 -5 -3 -10 -14 -10 -12 0 -21 5 -21 10
0 6 6 10 14 10 8 0 18 -4 21 -10z"/>
<path d="M12966 762 c-3 -6 4 -33 16 -62 17 -41 19 -56 10 -71 -13 -20 0 -35
19 -23 13 8 69 130 69 150 0 8 -9 14 -21 14 -17 0 -20 -4 -15 -23 3 -14 -1
-32 -8 -43 -14 -18 -15 -18 -21 7 -3 14 -5 32 -3 39 3 16 -37 26 -46 12z"/>
<path d="M13122 754 c-15 -10 -22 -25 -22 -49 0 -52 36 -77 84 -59 26 10 18
24 -14 24 -40 0 -38 17 3 28 35 10 40 36 9 60 -21 16 -33 15 -60 -4z m48 -24
c0 -5 -9 -10 -21 -10 -11 0 -17 5 -14 10 3 6 13 10 21 10 8 0 14 -4 14 -10z"/>
<path d="M13238 762 c-20 -4 -24 -17 -8 -27 13 -8 13 -62 0 -70 -18 -11 0 -25
31 -25 29 0 39 13 19 25 -5 3 -10 19 -10 34 0 20 6 30 20 34 46 12 -2 39 -52
29z"/>
<path d="M13342 754 c-30 -21 -28 -42 8 -62 16 -9 30 -20 30 -24 0 -12 -25 -9
-38 4 -15 15 -26 4 -19 -17 13 -31 97 -9 97 26 0 6 -13 18 -30 27 -36 21 -39
36 -5 28 28 -7 37 17 9 28 -22 9 -27 8 -52 -10z"/>
</g>
</svg>
