<svg class="svg-icon" style="width: 1em; height: 1em;vertical-align: middle;fill: currentColor;overflow: hidden;" viewBox="0 0 1024 1024" version="1.1" xmlns="http://www.w3.org/2000/svg"><path d="M358.16 234.72a17.68 17.68 0 1 0-2.8 0z" fill="#EFFAFE" /><path d="M295.52 286H304v-4.88c0-16.8 8.4-32.48 27.12-42.24a34.16 34.16 0 0 1-8-21.68 33.64 33.64 0 0 1 67.32 0 34.28 34.28 0 0 1-8 21.68c18.76 9.8 27.12 25.56 27.12 42.24v4.88h8.4V163.52H295.52z" fill="#40BDFF" /><path d="M728.48 884v-165.96l-2.36 0.4a59.72 59.72 0 0 0-49.48 58.96V824a8 8 0 0 1-8 8h-124v52a92 92 0 0 0 184 0z" fill="#FFDD00" /><path d="M726.12 718.44a60 60 0 0 0-17.64 6.08V884a92 92 0 0 1-82 91.44 92 92 0 0 0 102-91.44v-165.96z" fill="#EFC803" /><path d="M363.2 250.72h-12.88a30.44 30.44 0 0 0-30.4 30.4v4.88h73.72v-4.88a30.44 30.44 0 0 0-30.44-30.4z" fill="#EFFAFE" /><path d="M356.76 199.56a17.44 17.44 0 0 0-8 2 17.48 17.48 0 0 1 0 31.24 17.84 17.84 0 0 0 6.64 1.92h2.8a17.6 17.6 0 0 0-1.48-35.16z" fill="#E4EBED" /><path d="M402.04 163.52v92.28a44.84 44.84 0 0 1 7.6 25.36v4.84h8.4V163.52z" fill="#2197F7" /><path d="M363.2 250.72H348.76a30.44 30.44 0 0 1 28.84 30.32v4.96h16v-4.88a30.44 30.44 0 0 0-30.4-30.4z" fill="#E4EBED" /><path d="M745.88 59.32v39.12h39.12l-39.12-39.12z" fill="#EFFAFE" /><path d="M272.88 816h387.76v-38.6a76 76 0 0 1 76-76 8 8 0 0 1 8 8V816h26.64a25.24 25.24 0 0 0 25.2-25.24V114.44h-58.6a8 8 0 0 1-8-8V48H272.88a25.24 25.24 0 0 0-25.2 25.24v717.52a25.24 25.24 0 0 0 25.2 25.24z m161.16-522a8 8 0 0 1-8 8H287.52a8 8 0 0 1-8-8V155.52a8 8 0 0 1 8-8h138.52a8 8 0 0 1 8 8z m302.44-61.24h-256a8 8 0 0 1 0-16h256a8 8 0 0 1 0 16z m-256 53.24h256a8 8 0 0 1 0 16h-256a8 8 0 0 1 0-16z m256-122.52h-241.2a8 8 0 0 1 0-16h241.2a8 8 0 0 1 0 16zM287.52 355.28h448.96a8 8 0 0 1 0 16H287.52a8 8 0 0 1 0-16z m0 69.24h448.96a8 8 0 0 1 0 16H287.52a8 8 0 1 1 0-16z m0 69.24h448.96a8 8 0 0 1 0 16H287.52a8 8 0 0 1 0-16z m0 69.24h448.96a8 8 0 0 1 0 16H287.52a8 8 0 0 1 0-16z m0 69.24h448.96a8 8 0 0 1 0 16H287.52a8 8 0 1 1 0-16z m0 69.24h276a8 8 0 1 1 0 16h-276a8 8 0 0 1 0-16z" fill="#EFFAFE" /><path d="M776.32 114.44v676.32a25.24 25.24 0 0 1-25.2 25.24h20a25.24 25.24 0 0 0 25.2-25.24V114.44z" fill="#E4EBED" /><path d="M252.88 834h273.6V884a110 110 0 0 0 220 0v-50h24.64a43.28 43.28 0 0 0 43.2-43.24V106.44a10.6 10.6 0 0 0-2.92-7.08L744.96 32.92h-0.2a10.24 10.24 0 0 0-6.88-2.8H252.88a43.28 43.28 0 0 0-43.2 43.24v717.4a43.28 43.28 0 0 0 43.2 43.24z m473.6-10v60a90 90 0 0 1-180 0v-50h122.16a10 10 0 0 0 10-10v-46.6a57.92 57.92 0 0 1 48-56.96zM748 64l32 32.44h-32zM229.68 73.24a23.24 23.24 0 0 1 23.2-23.24H728v56.44a10 10 0 0 0 10 10h56.44v674.32a23.24 23.24 0 0 1-23.2 23.24h-24.64v-104.44a10 10 0 0 0-10-10 77.92 77.92 0 0 0-77.84 77.84v36.6H252.88a23.24 23.24 0 0 1-23.2-23.24z" fill="#263238" /><path d="M495.28 165.52h241.2a10 10 0 0 0 0-20h-241.2a10 10 0 0 0 0 20zM480.64 234.76h256a10 10 0 0 0 0-20h-256a10 10 0 0 0 0 20zM480.64 304h256a10 10 0 0 0 0-20h-256a10 10 0 0 0 0 20zM287.52 373.28h448.96a10 10 0 0 0 0-20H287.52a10 10 0 0 0 0 20zM287.52 442.52h448.96a10 10 0 0 0 0-20H287.52a10 10 0 1 0 0 20zM287.52 511.8h448.96a10 10 0 0 0 0-20H287.52a10 10 0 0 0 0 20zM287.52 581.04h448.96a10 10 0 0 0 0-20H287.52a10 10 0 0 0 0 20zM287.52 650.28h448.96a10 10 0 0 0 0-20H287.52a10 10 0 1 0 0 20zM287.52 719.56h276a10 10 0 1 0 0-20h-276a10 10 0 0 0 0 20zM287.52 304h138.52a10 10 0 0 0 10-10V155.52a10 10 0 0 0-10-10H287.52a10 10 0 0 0-10 10V294a10 10 0 0 0 10 10z m104-20h-69.6v-2.88a28.44 28.44 0 0 1 28.4-28.4h12.88a28.44 28.44 0 0 1 28.4 28.4z m-50.4-66.8a15.64 15.64 0 1 1 16.96 15.52h-2.64a15.64 15.64 0 0 1-14.32-15.52z m-43.6-51.68H416V284h-4.4v-2.88a48.44 48.44 0 0 0-26.12-42.92 35.64 35.64 0 1 0-57.48 0 48.44 48.44 0 0 0-26.12 42.92V284h-4.4z" fill="#263238" /><path d="M175.32 88h-16v-16a4 4 0 0 0-8 0v16h-16a4 4 0 0 0 0 8h16v16a4 4 0 1 0 8 0v-16h16a4 4 0 0 0 0-8z" fill="#FFDD00" /><path d="M944 515.8a24 24 0 1 1 24-24 24 24 0 0 1-24 24z m0-40a16 16 0 1 0 16 16 16 16 0 0 0-16-16z" fill="#40BDFF" /><path d="M101.2 936a24 24 0 1 1 24-24 24 24 0 0 1-24 24z m0-40a16 16 0 1 0 16 16 16 16 0 0 0-16-16z" fill="#FFDD00" /><path d="M151.32 508h-10.36l7.32-7.32a4 4 0 0 0-5.64-5.64l-7.32 7.32V492a4 4 0 0 0-8 0v10.36L120 495.04a4 4 0 0 0-5.64 5.64l7.28 7.32h-10.32a4 4 0 0 0 0 8h10.36l-7.32 7.32a4 4 0 0 0 5.64 5.64l7.32-7.32V532a4 4 0 0 0 8 0v-10.36l7.32 7.32a4 4 0 0 0 5.64-5.64L140.96 516h10.36a4 4 0 1 0 0-8zM858.32 900H848l7.32-7.32a4 4 0 0 0-5.64-5.64l-7.32 7.32V884a4 4 0 0 0-8 0v10.36l-7.32-7.32a4 4 0 0 0-5.64 5.64l7.32 7.32h-10.36a4 4 0 0 0 0 8h10.36l-7.32 7.32a4 4 0 0 0 5.64 5.64l7.32-7.32V924a4 4 0 0 0 8 0v-10.36l7.32 7.32a4 4 0 0 0 5.64-5.64L848 908h10.36a4 4 0 1 0 0-8z" fill="#40BDFF" /></svg>